<svg width="383" height="18" viewBox="0 0 383 18" fill="none" xmlns="http://www.w3.org/2000/svg">
<path d="M13.7445 0.899999V17H12.0655V9.571H1.99148V17H0.289481V0.899999H1.99148V8.076H12.0655V0.899999H13.7445ZM26.0374 17.138C24.4428 17.138 22.9938 16.7853 21.6904 16.08C20.4024 15.3593 19.3904 14.378 18.6544 13.136C17.9338 11.894 17.5734 10.4987 17.5734 8.95C17.5734 7.40133 17.9338 6.006 18.6544 4.764C19.3904 3.522 20.4024 2.54833 21.6904 1.843C22.9938 1.12233 24.4428 0.761999 26.0374 0.761999C27.6321 0.761999 29.0658 1.11467 30.3384 1.82C31.6264 2.52533 32.6384 3.50667 33.3744 4.764C34.1104 6.006 34.4784 7.40133 34.4784 8.95C34.4784 10.4987 34.1104 11.9017 33.3744 13.159C32.6384 14.401 31.6264 15.3747 30.3384 16.08C29.0658 16.7853 27.6321 17.138 26.0374 17.138ZM26.0374 15.62C27.3101 15.62 28.4601 15.3363 29.4874 14.769C30.5148 14.1863 31.3198 13.389 31.9024 12.377C32.4851 11.3497 32.7764 10.2073 32.7764 8.95C32.7764 7.69267 32.4851 6.558 31.9024 5.546C31.3198 4.51867 30.5148 3.72133 29.4874 3.154C28.4601 2.57133 27.3101 2.28 26.0374 2.28C24.7648 2.28 23.6071 2.57133 22.5644 3.154C21.5371 3.72133 20.7244 4.51867 20.1264 5.546C19.5438 6.558 19.2524 7.69267 19.2524 8.95C19.2524 10.2073 19.5438 11.3497 20.1264 12.377C20.7244 13.389 21.5371 14.1863 22.5644 14.769C23.6071 15.3363 24.7648 15.62 26.0374 15.62ZM59.9022 0.899999L54.4742 17H52.6802L47.9652 3.269L43.2272 17H41.4562L36.0282 0.899999H37.7762L42.4222 14.746L47.2292 0.899999H48.8162L53.5542 14.815L58.2692 0.899999H59.9022ZM91.4823 0.899999L86.0543 17H84.2603L79.5453 3.269L74.8073 17H73.0363L67.6083 0.899999H69.3563L74.0023 14.746L78.8093 0.899999H80.3963L85.1343 14.815L89.8493 0.899999H91.4823ZM105.988 15.528V17H94.603V0.899999H105.643V2.372H96.305V8.099H104.631V9.548H96.305V15.528H105.988ZM132.729 0.899999V17H131.096V4.12L124.771 14.953H123.966L117.641 4.189V17H116.008V0.899999H117.411L124.403 12.837L131.326 0.899999H132.729ZM148.072 12.699H139.102L137.17 17H135.399L142.759 0.899999H144.438L151.798 17H150.004L148.072 12.699ZM147.451 11.319L143.587 2.671L139.723 11.319H147.451ZM159.452 9.433L156.163 12.768V17H154.461V0.899999H156.163V10.629L165.616 0.899999H167.571L160.602 8.191L168.054 17H166.03L159.452 9.433ZM182.198 15.528V17H170.813V0.899999H181.853V2.372H172.515V8.099H180.841V9.548H172.515V15.528H182.198ZM202.361 8.697C203.419 8.927 204.232 9.387 204.799 10.077C205.382 10.7517 205.673 11.6257 205.673 12.699C205.673 14.079 205.16 15.1447 204.132 15.896C203.12 16.632 201.618 17 199.624 17H192.218V0.899999H199.164C200.958 0.899999 202.346 1.26033 203.327 1.981C204.324 2.70167 204.822 3.72133 204.822 5.04C204.822 5.92933 204.6 6.68833 204.155 7.317C203.726 7.93033 203.128 8.39033 202.361 8.697ZM193.92 2.303V8.145H199.049C200.353 8.145 201.357 7.89967 202.062 7.409C202.768 6.903 203.12 6.17467 203.12 5.224C203.12 4.27333 202.768 3.55267 202.062 3.062C201.357 2.556 200.353 2.303 199.049 2.303H193.92ZM199.601 15.597C201.043 15.597 202.131 15.3517 202.867 14.861C203.603 14.3703 203.971 13.6037 203.971 12.561C203.971 10.5523 202.515 9.548 199.601 9.548H193.92V15.597H199.601ZM220.552 17L216.872 11.825C216.458 11.871 216.029 11.894 215.584 11.894H211.26V17H209.558V0.899999H215.584C217.639 0.899999 219.249 1.39067 220.414 2.372C221.579 3.35333 222.162 4.70267 222.162 6.42C222.162 7.67733 221.84 8.743 221.196 9.617C220.567 10.4757 219.663 11.0967 218.482 11.48L222.415 17H220.552ZM215.538 10.445C217.133 10.445 218.352 10.0923 219.195 9.387C220.038 8.68167 220.46 7.69267 220.46 6.42C220.46 5.11667 220.038 4.12 219.195 3.43C218.352 2.72467 217.133 2.372 215.538 2.372H211.26V10.445H215.538ZM236.276 12.699H227.306L225.374 17H223.603L230.963 0.899999H232.642L240.002 17H238.208L236.276 12.699ZM235.655 11.319L231.791 2.671L227.927 11.319H235.655ZM256.12 0.899999V17H254.717L244.367 3.936V17H242.665V0.899999H244.068L254.441 13.964V0.899999H256.12ZM261.375 0.899999H267.93C269.632 0.899999 271.135 1.245 272.438 1.935C273.742 2.60967 274.754 3.56033 275.474 4.787C276.195 5.99833 276.555 7.386 276.555 8.95C276.555 10.514 276.195 11.9093 275.474 13.136C274.754 14.3473 273.742 15.298 272.438 15.988C271.135 16.6627 269.632 17 267.93 17H261.375V0.899999ZM267.838 15.528C269.249 15.528 270.483 15.252 271.541 14.7C272.599 14.1327 273.42 13.3583 274.002 12.377C274.585 11.3803 274.876 10.238 274.876 8.95C274.876 7.662 274.585 6.52733 274.002 5.546C273.42 4.54933 272.599 3.775 271.541 3.223C270.483 2.65567 269.249 2.372 267.838 2.372H263.077V15.528H267.838ZM284.816 17.138C283.62 17.138 282.47 16.9463 281.366 16.563C280.278 16.1797 279.434 15.6737 278.836 15.045L279.503 13.734C280.086 14.3167 280.86 14.792 281.826 15.16C282.792 15.5127 283.789 15.689 284.816 15.689C286.258 15.689 287.339 15.4283 288.059 14.907C288.78 14.3703 289.14 13.6803 289.14 12.837C289.14 12.193 288.941 11.6793 288.542 11.296C288.159 10.9127 287.684 10.6213 287.116 10.422C286.549 10.2073 285.759 9.97733 284.747 9.732C283.536 9.42533 282.57 9.134 281.849 8.858C281.129 8.56667 280.508 8.12967 279.986 7.547C279.48 6.96433 279.227 6.17467 279.227 5.178C279.227 4.36533 279.442 3.62933 279.871 2.97C280.301 2.29533 280.96 1.75867 281.849 1.36C282.739 0.961333 283.843 0.761999 285.161 0.761999C286.081 0.761999 286.978 0.892333 287.852 1.153C288.742 1.39833 289.508 1.74333 290.152 2.188L289.577 3.545C288.903 3.10033 288.182 2.77067 287.415 2.556C286.649 2.326 285.897 2.211 285.161 2.211C283.751 2.211 282.685 2.487 281.964 3.039C281.259 3.57567 280.906 4.27333 280.906 5.132C280.906 5.776 281.098 6.29733 281.481 6.696C281.88 7.07933 282.371 7.37833 282.953 7.593C283.551 7.79233 284.349 8.01467 285.345 8.26C286.526 8.55133 287.477 8.84267 288.197 9.134C288.933 9.41 289.554 9.83933 290.06 10.422C290.566 10.9893 290.819 11.7637 290.819 12.745C290.819 13.5577 290.597 14.3013 290.152 14.976C289.723 15.6353 289.056 16.1643 288.151 16.563C287.247 16.9463 286.135 17.138 284.816 17.138ZM303.675 2.372H298.017V0.899999H311.035V2.372H305.377V17H303.675V2.372ZM327.209 0.899999V17H325.53V9.571H315.456V17H313.754V0.899999H315.456V8.076H325.53V0.899999H327.209ZM343.458 17L339.778 11.825C339.364 11.871 338.935 11.894 338.49 11.894H334.166V17H332.464V0.899999H338.49C340.545 0.899999 342.155 1.39067 343.32 2.372C344.486 3.35333 345.068 4.70267 345.068 6.42C345.068 7.67733 344.746 8.743 344.102 9.617C343.474 10.4757 342.569 11.0967 341.388 11.48L345.321 17H343.458ZM338.444 10.445C340.039 10.445 341.258 10.0923 342.101 9.387C342.945 8.68167 343.366 7.69267 343.366 6.42C343.366 5.11667 342.945 4.12 342.101 3.43C341.258 2.72467 340.039 2.372 338.444 2.372H334.166V10.445H338.444ZM349.085 0.899999H350.787V17H349.085V0.899999ZM369.232 0.899999L362.102 17H360.423L353.293 0.899999H355.133L361.297 14.884L367.507 0.899999H369.232ZM382.954 15.528V17H371.569V0.899999H382.609V2.372H373.271V8.099H381.597V9.548H373.271V15.528H382.954Z" fill="#333333"/>
</svg>
