<svg width="233" height="19" viewBox="0 0 233 19" fill="none" xmlns="http://www.w3.org/2000/svg">
<path d="M0.191336 1.9H1.89334V16.528H10.9093V18H0.191336V1.9ZM25.1203 16.528V18H13.7353V1.9H24.7753V3.372H15.4373V9.099H23.7633V10.548H15.4373V16.528H25.1203ZM32.249 3.372H26.591V1.9H39.609V3.372H33.951V18H32.249V3.372ZM42.8184 0.818999C43.1711 0.818999 43.4624 0.941666 43.6924 1.187C43.9224 1.417 44.0374 1.70833 44.0374 2.061C44.0374 2.245 44.0068 2.44433 43.9454 2.659C43.8994 2.85833 43.8304 3.096 43.7384 3.372L42.7494 6.546H41.6454L42.4504 3.234C42.1898 3.15733 41.9828 3.01933 41.8294 2.82C41.6761 2.60533 41.5994 2.35233 41.5994 2.061C41.5994 1.693 41.7144 1.394 41.9444 1.164C42.1744 0.933999 42.4658 0.818999 42.8184 0.818999ZM52.5171 18.138C51.3211 18.138 50.1711 17.9463 49.0671 17.563C47.9784 17.1797 47.1351 16.6737 46.5371 16.045L47.2041 14.734C47.7867 15.3167 48.5611 15.792 49.5271 16.16C50.4931 16.5127 51.4897 16.689 52.5171 16.689C53.9584 16.689 55.0394 16.4283 55.7601 15.907C56.4807 15.3703 56.8411 14.6803 56.8411 13.837C56.8411 13.193 56.6417 12.6793 56.2431 12.296C55.8597 11.9127 55.3844 11.6213 54.8171 11.422C54.2497 11.2073 53.4601 10.9773 52.4481 10.732C51.2367 10.4253 50.2707 10.134 49.5501 9.858C48.8294 9.56667 48.2084 9.12967 47.6871 8.547C47.1811 7.96433 46.9281 7.17467 46.9281 6.178C46.9281 5.36533 47.1427 4.62933 47.5721 3.97C48.0014 3.29533 48.6607 2.75867 49.5501 2.36C50.4394 1.96133 51.5434 1.762 52.8621 1.762C53.7821 1.762 54.6791 1.89233 55.5531 2.153C56.4424 2.39833 57.2091 2.74333 57.8531 3.188L57.2781 4.545C56.6034 4.10033 55.8827 3.77067 55.1161 3.556C54.3494 3.326 53.5981 3.211 52.8621 3.211C51.4514 3.211 50.3857 3.487 49.6651 4.039C48.9597 4.57567 48.6071 5.27333 48.6071 6.132C48.6071 6.776 48.7987 7.29733 49.1821 7.696C49.5807 8.07933 50.0714 8.37833 50.6541 8.593C51.2521 8.79233 52.0494 9.01467 53.0461 9.26C54.2267 9.55133 55.1774 9.84267 55.8981 10.134C56.6341 10.41 57.2551 10.8393 57.7611 11.422C58.2671 11.9893 58.5201 12.7637 58.5201 13.745C58.5201 14.5577 58.2977 15.3013 57.8531 15.976C57.4237 16.6353 56.7567 17.1643 55.8521 17.563C54.9474 17.9463 53.8357 18.138 52.5171 18.138ZM79.587 9.95H81.22V16.091C80.4686 16.7503 79.5793 17.2563 78.552 17.609C77.5246 17.9617 76.4436 18.138 75.309 18.138C73.699 18.138 72.25 17.7853 70.962 17.08C69.674 16.3747 68.662 15.401 67.926 14.159C67.19 12.9017 66.822 11.4987 66.822 9.95C66.822 8.40133 67.19 7.006 67.926 5.764C68.662 4.50667 69.674 3.52533 70.962 2.82C72.25 2.11467 73.7066 1.762 75.332 1.762C76.5586 1.762 77.6856 1.96133 78.713 2.36C79.7403 2.74333 80.6066 3.31833 81.312 4.085L80.254 5.166C78.9813 3.90867 77.3636 3.28 75.401 3.28C74.0976 3.28 72.917 3.57133 71.859 4.154C70.8163 4.72133 69.996 5.51867 69.398 6.546C68.8 7.558 68.501 8.69267 68.501 9.95C68.501 11.2073 68.8 12.342 69.398 13.354C69.996 14.366 70.8163 15.1633 71.859 15.746C72.9016 16.3287 74.0746 16.62 75.378 16.62C77.034 16.62 78.437 16.206 79.587 15.378V9.95ZM97.422 16.528V18H86.037V1.9H97.077V3.372H87.739V9.099H96.065V10.548H87.739V16.528H97.422ZM104.551 3.372H98.8928V1.9H111.911V3.372H106.253V18H104.551V3.372ZM120.649 1.9H122.351V18H120.649V1.9ZM141.045 1.9V18H139.642L129.292 4.936V18H127.59V1.9H128.993L139.366 14.964V1.9H141.045ZM155.447 3.372H149.789V1.9H162.807V3.372H157.149V18H155.447V3.372ZM172.34 18.138C170.745 18.138 169.296 17.7853 167.993 17.08C166.705 16.3593 165.693 15.378 164.957 14.136C164.236 12.894 163.876 11.4987 163.876 9.95C163.876 8.40133 164.236 7.006 164.957 5.764C165.693 4.522 166.705 3.54833 167.993 2.843C169.296 2.12233 170.745 1.762 172.34 1.762C173.934 1.762 175.368 2.11467 176.641 2.82C177.929 3.52533 178.941 4.50667 179.677 5.764C180.413 7.006 180.781 8.40133 180.781 9.95C180.781 11.4987 180.413 12.9017 179.677 14.159C178.941 15.401 177.929 16.3747 176.641 17.08C175.368 17.7853 173.934 18.138 172.34 18.138ZM172.34 16.62C173.612 16.62 174.762 16.3363 175.79 15.769C176.817 15.1863 177.622 14.389 178.205 13.377C178.787 12.3497 179.079 11.2073 179.079 9.95C179.079 8.69267 178.787 7.558 178.205 6.546C177.622 5.51867 176.817 4.72133 175.79 4.154C174.762 3.57133 173.612 3.28 172.34 3.28C171.067 3.28 169.909 3.57133 168.867 4.154C167.839 4.72133 167.027 5.51867 166.429 6.546C165.846 7.558 165.555 8.69267 165.555 9.95C165.555 11.2073 165.846 12.3497 166.429 13.377C167.027 14.389 167.839 15.1863 168.867 15.769C169.909 16.3363 171.067 16.62 172.34 16.62ZM191.082 18.138C188.996 18.138 187.371 17.54 186.206 16.344C185.04 15.148 184.458 13.4077 184.458 11.123V1.9H186.16V11.054C186.16 12.9247 186.581 14.32 187.425 15.24C188.268 16.16 189.487 16.62 191.082 16.62C192.692 16.62 193.918 16.16 194.762 15.24C195.605 14.32 196.027 12.9247 196.027 11.054V1.9H197.683V11.123C197.683 13.4077 197.1 15.148 195.935 16.344C194.785 17.54 193.167 18.138 191.082 18.138ZM209.803 18.138C208.209 18.138 206.767 17.7853 205.479 17.08C204.207 16.3747 203.202 15.401 202.466 14.159C201.746 12.9017 201.385 11.4987 201.385 9.95C201.385 8.40133 201.746 7.006 202.466 5.764C203.202 4.50667 204.214 3.52533 205.502 2.82C206.79 2.11467 208.232 1.762 209.826 1.762C211.022 1.762 212.126 1.96133 213.138 2.36C214.15 2.75867 215.009 3.34133 215.714 4.108L214.633 5.189C213.376 3.91633 211.789 3.28 209.872 3.28C208.6 3.28 207.442 3.57133 206.399 4.154C205.357 4.73667 204.536 5.534 203.938 6.546C203.356 7.558 203.064 8.69267 203.064 9.95C203.064 11.2073 203.356 12.342 203.938 13.354C204.536 14.366 205.357 15.1633 206.399 15.746C207.442 16.3287 208.6 16.62 209.872 16.62C211.804 16.62 213.391 15.976 214.633 14.688L215.714 15.769C215.009 16.5357 214.143 17.126 213.115 17.54C212.103 17.9387 210.999 18.138 209.803 18.138ZM232.798 1.9V18H231.119V10.571H221.045V18H219.343V1.9H221.045V9.076H231.119V1.9H232.798Z" fill="#333333"/>
</svg>
