<svg width="366" height="15" viewBox="0 0 366 15" fill="none" xmlns="http://www.w3.org/2000/svg">
<path d="M6.86896 11.135L3.25396 3.275H3.40397L2.89396 8.36C2.84396 8.89 2.83896 9.3 2.87896 9.59C2.91896 9.87 3.01897 10.07 3.17897 10.19C3.34896 10.3 3.57896 10.37 3.86897 10.4C3.89897 10.5 3.91896 10.615 3.92897 10.745C3.93897 10.875 3.94397 10.975 3.94397 11.045C3.70397 11.025 3.42896 11.01 3.11896 11C2.81896 11 2.55896 11 2.33896 11C2.19896 11 2.03396 11 1.84396 11C1.66396 11.01 1.48396 11.015 1.30396 11.015C1.13396 11.025 0.978965 11.035 0.838965 11.045C0.838965 10.975 0.843965 10.875 0.853965 10.745C0.863965 10.615 0.883965 10.5 0.913965 10.4C1.18396 10.37 1.39396 10.305 1.54396 10.205C1.70396 10.095 1.82896 9.89 1.91896 9.59C2.00896 9.29 2.07896 8.835 2.12896 8.225L2.60897 2.885C2.63896 2.525 2.62396 2.245 2.56396 2.045C2.51396 1.835 2.40896 1.685 2.24896 1.595C2.09896 1.505 1.88396 1.46 1.60396 1.46C1.57396 1.36 1.55396 1.25 1.54396 1.13C1.53396 1.01 1.52896 0.905 1.52896 0.815C1.62896 0.825 1.74396 0.834999 1.87396 0.844999C2.00396 0.844999 2.13896 0.849999 2.27897 0.859999C2.41897 0.859999 2.54896 0.859999 2.66896 0.859999C2.79896 0.859999 2.92396 0.859999 3.04397 0.859999C3.17396 0.849999 3.29897 0.844999 3.41897 0.844999C3.54897 0.834999 3.67897 0.825 3.80896 0.815L7.73897 9.5H7.40897L10.829 0.815C10.949 0.825 11.074 0.834999 11.204 0.844999C11.334 0.844999 11.464 0.849999 11.594 0.859999C11.734 0.859999 11.869 0.859999 11.999 0.859999C12.129 0.859999 12.254 0.859999 12.374 0.859999C12.504 0.849999 12.629 0.844999 12.749 0.844999C12.879 0.834999 13.009 0.825 13.139 0.815C13.139 0.915 13.134 1.02 13.124 1.13C13.114 1.24 13.094 1.35 13.064 1.46C12.714 1.46 12.439 1.565 12.239 1.775C12.049 1.975 11.984 2.375 12.044 2.975L12.584 8.48C12.634 8.97 12.699 9.35 12.779 9.62C12.859 9.89 12.969 10.08 13.109 10.19C13.259 10.3 13.449 10.365 13.679 10.385C13.709 10.485 13.729 10.595 13.739 10.715C13.749 10.835 13.754 10.945 13.754 11.045C13.634 11.035 13.499 11.025 13.349 11.015C13.199 11.015 13.039 11.01 12.869 11C12.709 11 12.549 11 12.389 11C12.239 11 12.094 11 11.954 11C11.774 11 11.574 11 11.354 11C11.134 11.01 10.914 11.015 10.694 11.015C10.484 11.025 10.294 11.035 10.124 11.045C10.124 10.955 10.129 10.85 10.139 10.73C10.159 10.61 10.184 10.5 10.214 10.4C10.534 10.37 10.764 10.305 10.904 10.205C11.054 10.105 11.139 9.935 11.159 9.695C11.189 9.455 11.179 9.115 11.129 8.675L10.559 3.215H10.724L7.48397 11.03C7.39397 11.07 7.29897 11.095 7.19897 11.105C7.09897 11.125 6.98897 11.135 6.86896 11.135ZM14.8289 11.045C14.8289 10.945 14.8339 10.84 14.8439 10.73C14.8539 10.61 14.8739 10.5 14.9039 10.4C15.3039 10.4 15.5739 10.31 15.7139 10.13C15.8639 9.94 15.9389 9.595 15.9389 9.095V6.125C15.9389 5.885 15.9139 5.69 15.8639 5.54C15.8239 5.38 15.7239 5.26 15.5639 5.18C15.4039 5.1 15.1539 5.06 14.8139 5.06C14.8139 4.95 14.8239 4.85 14.8439 4.76C14.8639 4.67 14.8989 4.585 14.9489 4.505C15.0989 4.505 15.3089 4.48 15.5789 4.43C15.8589 4.38 16.1289 4.315 16.3889 4.235C16.6489 4.155 16.8389 4.075 16.9589 3.995C17.0489 4.025 17.1239 4.085 17.1839 4.175C17.2539 4.265 17.2889 4.405 17.2889 4.595V9.095C17.2889 9.595 17.3539 9.94 17.4839 10.13C17.6239 10.31 17.8539 10.4 18.1739 10.4C18.2039 10.5 18.2239 10.615 18.2339 10.745C18.2439 10.875 18.2489 10.975 18.2489 11.045C18.0789 11.035 17.8989 11.025 17.7089 11.015C17.5189 11.015 17.3239 11.01 17.1239 11C16.9339 11 16.7439 11 16.5539 11C16.3639 11 16.1639 11 15.9539 11C15.7539 11.01 15.5589 11.015 15.3689 11.015C15.1789 11.025 14.9989 11.035 14.8289 11.045ZM16.4939 2.3C16.2439 2.3 16.0339 2.215 15.8639 2.045C15.6939 1.875 15.6089 1.67 15.6089 1.43C15.6089 1.16 15.6989 0.94 15.8789 0.769999C16.0589 0.599999 16.2639 0.514999 16.4939 0.514999C16.7639 0.514999 16.9789 0.599999 17.1389 0.769999C17.3089 0.94 17.3939 1.16 17.3939 1.43C17.3939 1.66 17.3039 1.865 17.1239 2.045C16.9539 2.215 16.7439 2.3 16.4939 2.3ZM20.4506 7.79V6.125C20.4506 5.885 20.4256 5.69 20.3756 5.54C20.3256 5.39 20.2206 5.275 20.0606 5.195C19.9006 5.115 19.6556 5.07 19.3256 5.06C19.3256 4.95 19.3356 4.85 19.3556 4.76C19.3756 4.67 19.4106 4.585 19.4606 4.505C19.7706 4.485 20.1256 4.425 20.5256 4.325C20.9256 4.225 21.2406 4.115 21.4706 3.995C21.5606 4.025 21.6356 4.09 21.6956 4.19C21.7656 4.28 21.8006 4.435 21.8006 4.655L20.4506 7.79ZM26.2406 9.095C26.2406 9.615 26.3106 9.965 26.4506 10.145C26.6006 10.315 26.8256 10.4 27.1256 10.4C27.1556 10.49 27.1756 10.585 27.1856 10.685C27.1956 10.785 27.2006 10.905 27.2006 11.045C26.9806 11.025 26.7306 11.01 26.4506 11C26.1706 11 25.8756 11 25.5656 11C25.3656 11 25.1556 11 24.9356 11C24.7156 11.01 24.5056 11.015 24.3056 11.015C24.1156 11.025 23.9406 11.035 23.7806 11.045C23.7806 10.905 23.7856 10.785 23.7956 10.685C23.8056 10.575 23.8256 10.48 23.8556 10.4C24.2156 10.4 24.4756 10.31 24.6356 10.13C24.8056 9.94 24.8906 9.595 24.8906 9.095V6.815C24.8906 6.105 24.7606 5.625 24.5006 5.375C24.2406 5.115 23.9056 4.985 23.4956 4.985C23.2356 4.985 22.9756 5.07 22.7156 5.24C22.4556 5.4 22.2356 5.665 22.0556 6.035C21.8856 6.395 21.8006 6.88 21.8006 7.49V9.095C21.8006 9.595 21.8756 9.94 22.0256 10.13C22.1756 10.31 22.4456 10.4 22.8356 10.4C22.8656 10.49 22.8856 10.585 22.8956 10.685C22.9056 10.785 22.9106 10.905 22.9106 11.045C22.7706 11.035 22.6006 11.025 22.4006 11.015C22.2006 11.015 21.9906 11.01 21.7706 11C21.5506 11 21.3356 11 21.1256 11C20.9256 11 20.7156 11 20.4956 11C20.2756 11.01 20.0656 11.015 19.8656 11.015C19.6656 11.025 19.4906 11.035 19.3406 11.045C19.3406 10.905 19.3456 10.785 19.3556 10.685C19.3656 10.575 19.3856 10.48 19.4156 10.4C19.8056 10.4 20.0756 10.31 20.2256 10.13C20.3756 9.94 20.4506 9.595 20.4506 9.095V6.125L21.8006 4.655C21.8006 4.775 21.7956 4.91 21.7856 5.06C21.7756 5.21 21.7456 5.37 21.6956 5.54C21.7256 5.49 21.7556 5.435 21.7856 5.375C21.8156 5.305 21.8606 5.23 21.9206 5.15C22.0906 4.92 22.3606 4.685 22.7306 4.445C23.1106 4.195 23.5656 4.07 24.0956 4.07C24.4756 4.07 24.8256 4.15 25.1456 4.31C25.4756 4.46 25.7406 4.715 25.9406 5.075C26.1406 5.425 26.2406 5.905 26.2406 6.515V9.095ZM28.2908 11.045C28.2908 10.945 28.2958 10.84 28.3058 10.73C28.3158 10.61 28.3358 10.5 28.3658 10.4C28.7658 10.4 29.0358 10.31 29.1758 10.13C29.3258 9.94 29.4008 9.595 29.4008 9.095V6.125C29.4008 5.885 29.3758 5.69 29.3258 5.54C29.2858 5.38 29.1858 5.26 29.0258 5.18C28.8658 5.1 28.6158 5.06 28.2758 5.06C28.2758 4.95 28.2858 4.85 28.3058 4.76C28.3258 4.67 28.3608 4.585 28.4108 4.505C28.5608 4.505 28.7708 4.48 29.0408 4.43C29.3208 4.38 29.5908 4.315 29.8508 4.235C30.1108 4.155 30.3008 4.075 30.4208 3.995C30.5108 4.025 30.5858 4.085 30.6458 4.175C30.7158 4.265 30.7508 4.405 30.7508 4.595V9.095C30.7508 9.595 30.8158 9.94 30.9458 10.13C31.0858 10.31 31.3158 10.4 31.6358 10.4C31.6658 10.5 31.6858 10.615 31.6958 10.745C31.7058 10.875 31.7108 10.975 31.7108 11.045C31.5408 11.035 31.3608 11.025 31.1708 11.015C30.9808 11.015 30.7858 11.01 30.5858 11C30.3958 11 30.2058 11 30.0158 11C29.8258 11 29.6258 11 29.4158 11C29.2158 11.01 29.0208 11.015 28.8308 11.015C28.6408 11.025 28.4608 11.035 28.2908 11.045ZM29.9558 2.3C29.7058 2.3 29.4958 2.215 29.3258 2.045C29.1558 1.875 29.0708 1.67 29.0708 1.43C29.0708 1.16 29.1608 0.94 29.3408 0.769999C29.5208 0.599999 29.7258 0.514999 29.9558 0.514999C30.2258 0.514999 30.4408 0.599999 30.6008 0.769999C30.7708 0.94 30.8558 1.16 30.8558 1.43C30.8558 1.66 30.7658 1.865 30.5858 2.045C30.4158 2.215 30.2058 2.3 29.9558 2.3ZM32.8026 11.045C32.8026 10.905 32.8076 10.785 32.8176 10.685C32.8276 10.575 32.8476 10.48 32.8776 10.4C33.2776 10.38 33.5476 10.285 33.6876 10.115C33.8376 9.935 33.9126 9.595 33.9126 9.095V6.125C33.9126 5.885 33.8876 5.69 33.8376 5.54C33.7876 5.39 33.6826 5.275 33.5226 5.195C33.3626 5.115 33.1176 5.07 32.7876 5.06C32.7876 4.95 32.7976 4.85 32.8176 4.76C32.8376 4.67 32.8726 4.585 32.9226 4.505C33.0926 4.495 33.3026 4.465 33.5526 4.415C33.8126 4.355 34.0626 4.29 34.3026 4.22C34.5426 4.14 34.7276 4.065 34.8576 3.995C34.9476 4.025 35.0226 4.085 35.0826 4.175C35.1526 4.265 35.1876 4.405 35.1876 4.595C35.1876 4.755 35.1776 4.94 35.1576 5.15C35.1476 5.36 35.1176 5.67 35.0676 6.08L34.9176 6.095C35.0576 5.715 35.1576 5.46 35.2176 5.33C35.2876 5.2 35.3376 5.115 35.3676 5.075C35.5276 4.845 35.7926 4.61 36.1626 4.37C36.5426 4.12 36.9926 3.995 37.5126 3.995C37.9326 3.995 38.3176 4.09 38.6676 4.28C39.0176 4.47 39.2726 4.795 39.4326 5.255C39.4726 5.375 39.4926 5.54 39.4926 5.75H39.4476C39.5376 5.5 39.6376 5.3 39.7476 5.15C39.9176 4.92 40.1876 4.685 40.5576 4.445C40.9276 4.195 41.3726 4.07 41.8926 4.07C42.2726 4.07 42.6226 4.15 42.9426 4.31C43.2626 4.46 43.5176 4.715 43.7076 5.075C43.9076 5.425 44.0076 5.905 44.0076 6.515V9.095C44.0076 9.435 44.0376 9.7 44.0976 9.89C44.1676 10.07 44.2676 10.195 44.3976 10.265C44.5376 10.335 44.7076 10.38 44.9076 10.4C44.9376 10.49 44.9576 10.585 44.9676 10.685C44.9776 10.785 44.9826 10.905 44.9826 11.045C44.7626 11.025 44.5076 11.01 44.2176 11C43.9376 11 43.6476 11 43.3476 11C43.1476 11 42.9426 11 42.7326 11C42.5226 11.01 42.3176 11.015 42.1176 11.015C41.9176 11.025 41.7326 11.035 41.5626 11.045C41.5626 10.905 41.5676 10.785 41.5776 10.685C41.5876 10.575 41.6076 10.48 41.6376 10.4C41.9076 10.38 42.1176 10.335 42.2676 10.265C42.4176 10.185 42.5226 10.055 42.5826 9.875C42.6426 9.685 42.6726 9.425 42.6726 9.095V6.815C42.6726 6.105 42.5426 5.625 42.2826 5.375C42.0326 5.115 41.7026 4.985 41.2926 4.985C41.0426 4.985 40.7876 5.07 40.5276 5.24C40.2676 5.4 40.0526 5.665 39.8826 6.035C39.7126 6.395 39.6276 6.88 39.6276 7.49V9.095C39.6276 9.615 39.7076 9.96 39.8676 10.13C40.0276 10.29 40.2976 10.38 40.6776 10.4C40.7076 10.49 40.7276 10.585 40.7376 10.685C40.7476 10.785 40.7526 10.905 40.7526 11.045C40.5026 11.025 40.2126 11.01 39.8826 11C39.5626 11 39.2576 11 38.9676 11C38.6776 11 38.3726 11 38.0526 11C37.7426 11.01 37.4526 11.025 37.1826 11.045C37.1826 10.905 37.1876 10.785 37.1976 10.685C37.2076 10.575 37.2276 10.48 37.2576 10.4C37.5276 10.38 37.7376 10.335 37.8876 10.265C38.0376 10.185 38.1426 10.055 38.2026 9.875C38.2626 9.685 38.2926 9.425 38.2926 9.095V6.74C38.2926 6.03 38.1626 5.55 37.9026 5.3C37.6526 5.04 37.3226 4.91 36.9126 4.91C36.6626 4.91 36.4076 4.995 36.1476 5.165C35.8876 5.325 35.6726 5.59 35.5026 5.96C35.3326 6.32 35.2476 6.805 35.2476 7.415V9.095C35.2476 9.595 35.3226 9.935 35.4726 10.115C35.6226 10.285 35.8976 10.38 36.2976 10.4C36.3276 10.49 36.3476 10.585 36.3576 10.685C36.3676 10.785 36.3726 10.905 36.3726 11.045C36.2026 11.035 36.0126 11.025 35.8026 11.015C35.5926 11.015 35.3826 11.01 35.1726 11C34.9626 11 34.7676 11 34.5876 11C34.4176 11 34.2226 11 34.0026 11C33.7826 11.01 33.5676 11.015 33.3576 11.015C33.1476 11.025 32.9626 11.035 32.8026 11.045ZM50.664 11.135C50.554 11.085 50.464 10.995 50.394 10.865C50.334 10.735 50.304 10.53 50.304 10.25C50.304 10.16 50.309 10.055 50.319 9.935C50.329 9.805 50.349 9.69 50.379 9.59H50.409C50.379 9.75 50.309 9.925 50.199 10.115C50.099 10.295 49.964 10.455 49.794 10.595C49.624 10.745 49.409 10.87 49.149 10.97C48.889 11.06 48.574 11.105 48.204 11.105C47.574 11.105 47.094 10.965 46.764 10.685C46.434 10.395 46.269 10.005 46.269 9.515C46.269 9.125 46.359 8.795 46.539 8.525C46.729 8.245 46.969 8.015 47.259 7.835C47.559 7.645 47.879 7.495 48.219 7.385C48.569 7.275 48.909 7.19 49.239 7.13C49.569 7.07 49.859 7.02 50.109 6.98C50.109 6.57 50.099 6.25 50.079 6.02C50.069 5.79 50.039 5.61 49.989 5.48C49.949 5.34 49.884 5.22 49.794 5.12C49.674 4.97 49.534 4.86 49.374 4.79C49.224 4.71 49.054 4.67 48.864 4.67C48.534 4.67 48.274 4.775 48.084 4.985C47.894 5.185 47.759 5.42 47.679 5.69C47.599 5.96 47.554 6.2 47.544 6.41C47.434 6.41 47.294 6.405 47.124 6.395C46.964 6.375 46.844 6.345 46.764 6.305C46.784 6.055 46.789 5.775 46.779 5.465C46.769 5.155 46.739 4.89 46.689 4.67C47.099 4.46 47.529 4.295 47.979 4.175C48.439 4.055 48.859 3.995 49.239 3.995C49.609 3.995 49.924 4.05 50.184 4.16C50.454 4.26 50.669 4.395 50.829 4.565C51.089 4.815 51.259 5.145 51.339 5.555C51.419 5.955 51.459 6.49 51.459 7.16V8.81C51.459 9.09 51.479 9.315 51.519 9.485C51.569 9.645 51.659 9.765 51.789 9.845C51.919 9.915 52.119 9.96 52.389 9.98C52.389 10.08 52.384 10.195 52.374 10.325C52.364 10.445 52.339 10.56 52.299 10.67C52.049 10.68 51.769 10.73 51.459 10.82C51.159 10.9 50.894 11.005 50.664 11.135ZM48.624 10.28C48.844 10.28 49.069 10.21 49.299 10.07C49.529 9.92 49.719 9.69 49.869 9.38C50.029 9.07 50.109 8.665 50.109 8.165V7.595C49.859 7.625 49.594 7.67 49.314 7.73C49.034 7.78 48.774 7.86 48.534 7.97C48.294 8.08 48.099 8.235 47.949 8.435C47.799 8.625 47.724 8.885 47.724 9.215C47.724 9.585 47.814 9.855 47.994 10.025C48.174 10.195 48.384 10.28 48.624 10.28ZM53.5297 11.045C53.5297 10.945 53.5347 10.84 53.5447 10.73C53.5547 10.61 53.5747 10.5 53.6047 10.4C54.0047 10.4 54.2747 10.31 54.4147 10.13C54.5647 9.94 54.6397 9.595 54.6397 9.095V2.375C54.6397 2.135 54.6147 1.94 54.5647 1.79C54.5247 1.63 54.4247 1.51 54.2647 1.43C54.1047 1.35 53.8547 1.31 53.5147 1.31C53.5147 1.2 53.5247 1.1 53.5447 1.01C53.5647 0.92 53.5997 0.835 53.6497 0.755C53.7997 0.755 54.0097 0.73 54.2797 0.68C54.5597 0.63 54.8297 0.565 55.0897 0.484999C55.3497 0.404999 55.5397 0.324999 55.6597 0.245C55.7497 0.274999 55.8247 0.334999 55.8847 0.424999C55.9547 0.514999 55.9897 0.654999 55.9897 0.844999V9.095C55.9897 9.595 56.0547 9.94 56.1847 10.13C56.3247 10.31 56.5547 10.4 56.8747 10.4C56.9047 10.5 56.9247 10.615 56.9347 10.745C56.9447 10.875 56.9497 10.975 56.9497 11.045C56.7797 11.035 56.5997 11.025 56.4097 11.015C56.2197 11.015 56.0247 11.01 55.8247 11C55.6347 11 55.4447 11 55.2547 11C55.0647 11 54.8647 11 54.6547 11C54.4547 11.01 54.2597 11.015 54.0697 11.015C53.8797 11.025 53.6997 11.035 53.5297 11.045ZM62.991 1.52C62.511 1.52 62.146 1.6 61.896 1.76C61.656 1.91 61.481 2.12 61.371 2.39C61.271 2.66 61.186 2.98 61.116 3.35C61.006 3.35 60.881 3.34 60.741 3.32C60.601 3.3 60.486 3.265 60.396 3.215C60.476 2.795 60.536 2.375 60.576 1.955C60.616 1.535 60.636 1.155 60.636 0.815C60.916 0.825 61.256 0.834999 61.656 0.844999C62.066 0.854999 62.506 0.859999 62.976 0.859999C63.456 0.859999 63.951 0.859999 64.461 0.859999C64.971 0.859999 65.466 0.859999 65.946 0.859999C66.436 0.859999 66.886 0.854999 67.296 0.844999C67.706 0.834999 68.046 0.825 68.316 0.815C68.306 1.175 68.306 1.545 68.316 1.925C68.336 2.305 68.366 2.735 68.406 3.215C68.306 3.265 68.191 3.305 68.061 3.335C67.941 3.355 67.806 3.36 67.656 3.35C67.646 2.76 67.506 2.31 67.236 2C66.976 1.68 66.551 1.52 65.961 1.52H62.991ZM63.756 1.265H65.166V9.095C65.166 9.425 65.196 9.685 65.256 9.875C65.316 10.055 65.431 10.185 65.601 10.265C65.771 10.335 66.016 10.38 66.336 10.4C66.366 10.48 66.386 10.575 66.396 10.685C66.406 10.785 66.411 10.905 66.411 11.045C66.091 11.025 65.761 11.01 65.421 11C65.091 11 64.766 11 64.446 11C64.236 11 64.011 11 63.771 11C63.541 11.01 63.316 11.015 63.096 11.015C62.876 11.025 62.671 11.035 62.481 11.045C62.481 10.905 62.486 10.785 62.496 10.685C62.506 10.575 62.526 10.48 62.556 10.4C62.876 10.38 63.121 10.335 63.291 10.265C63.471 10.185 63.591 10.055 63.651 9.875C63.721 9.685 63.756 9.425 63.756 9.095V1.265ZM71.5207 11.135C70.8107 11.135 70.2207 10.975 69.7507 10.655C69.2807 10.335 68.9257 9.905 68.6857 9.365C68.4557 8.815 68.3407 8.215 68.3407 7.565C68.3407 6.925 68.4657 6.335 68.7157 5.795C68.9657 5.255 69.3207 4.82 69.7807 4.49C70.2507 4.16 70.8057 3.995 71.4457 3.995C72.0957 3.995 72.6157 4.135 73.0057 4.415C73.4057 4.695 73.7007 5.07 73.8907 5.54C74.0907 6.01 74.2107 6.53 74.2507 7.1C74.2107 7.3 74.1357 7.47 74.0257 7.61C73.8557 7.61 73.6007 7.61 73.2607 7.61C72.9207 7.61 72.5357 7.615 72.1057 7.625C71.6757 7.625 71.2357 7.635 70.7857 7.655C70.3357 7.665 69.9107 7.68 69.5107 7.7V6.935H72.6907C72.6907 6.275 72.5707 5.74 72.3307 5.33C72.0907 4.92 71.7507 4.715 71.3107 4.715C71.0707 4.715 70.8357 4.79 70.6057 4.94C70.3757 5.08 70.1857 5.335 70.0357 5.705C69.8857 6.065 69.8107 6.58 69.8107 7.25C69.8107 7.74 69.8707 8.22 69.9907 8.69C70.1207 9.15 70.3407 9.535 70.6507 9.845C70.9707 10.145 71.4207 10.295 72.0007 10.295C72.3307 10.295 72.6557 10.22 72.9757 10.07C73.2957 9.92 73.5807 9.705 73.8307 9.425C73.9107 9.465 73.9857 9.535 74.0557 9.635C74.1357 9.725 74.1807 9.81 74.1907 9.89C73.8507 10.34 73.4557 10.66 73.0057 10.85C72.5657 11.04 72.0707 11.135 71.5207 11.135ZM75.4002 11.045C75.4002 10.905 75.4052 10.785 75.4152 10.685C75.4252 10.575 75.4452 10.48 75.4752 10.4C75.8752 10.38 76.1452 10.285 76.2852 10.115C76.4352 9.935 76.5102 9.595 76.5102 9.095V6.125C76.5102 5.885 76.4852 5.69 76.4352 5.54C76.3852 5.39 76.2802 5.275 76.1202 5.195C75.9602 5.115 75.7152 5.07 75.3852 5.06C75.3852 4.95 75.3952 4.85 75.4152 4.76C75.4352 4.67 75.4702 4.585 75.5202 4.505C75.6902 4.495 75.9002 4.465 76.1502 4.415C76.4102 4.355 76.6602 4.29 76.9002 4.22C77.1402 4.14 77.3252 4.065 77.4552 3.995C77.5452 4.025 77.6202 4.085 77.6802 4.175C77.7502 4.265 77.7852 4.405 77.7852 4.595C77.7852 4.755 77.7752 4.94 77.7552 5.15C77.7452 5.36 77.7152 5.67 77.6652 6.08L77.5152 6.095C77.6552 5.715 77.7552 5.46 77.8152 5.33C77.8852 5.2 77.9352 5.115 77.9652 5.075C78.1252 4.845 78.3902 4.61 78.7602 4.37C79.1402 4.12 79.5902 3.995 80.1102 3.995C80.5302 3.995 80.9152 4.09 81.2652 4.28C81.6152 4.47 81.8702 4.795 82.0302 5.255C82.0702 5.375 82.0902 5.54 82.0902 5.75H82.0452C82.1352 5.5 82.2352 5.3 82.3452 5.15C82.5152 4.92 82.7852 4.685 83.1552 4.445C83.5252 4.195 83.9702 4.07 84.4902 4.07C84.8702 4.07 85.2202 4.15 85.5402 4.31C85.8602 4.46 86.1152 4.715 86.3052 5.075C86.5052 5.425 86.6052 5.905 86.6052 6.515V9.095C86.6052 9.435 86.6352 9.7 86.6952 9.89C86.7652 10.07 86.8652 10.195 86.9952 10.265C87.1352 10.335 87.3052 10.38 87.5052 10.4C87.5352 10.49 87.5552 10.585 87.5652 10.685C87.5752 10.785 87.5802 10.905 87.5802 11.045C87.3602 11.025 87.1052 11.01 86.8152 11C86.5352 11 86.2452 11 85.9452 11C85.7452 11 85.5402 11 85.3302 11C85.1202 11.01 84.9152 11.015 84.7152 11.015C84.5152 11.025 84.3302 11.035 84.1602 11.045C84.1602 10.905 84.1652 10.785 84.1752 10.685C84.1852 10.575 84.2052 10.48 84.2352 10.4C84.5052 10.38 84.7152 10.335 84.8652 10.265C85.0152 10.185 85.1202 10.055 85.1802 9.875C85.2402 9.685 85.2702 9.425 85.2702 9.095V6.815C85.2702 6.105 85.1402 5.625 84.8802 5.375C84.6302 5.115 84.3002 4.985 83.8902 4.985C83.6402 4.985 83.3852 5.07 83.1252 5.24C82.8652 5.4 82.6502 5.665 82.4802 6.035C82.3102 6.395 82.2252 6.88 82.2252 7.49V9.095C82.2252 9.615 82.3052 9.96 82.4652 10.13C82.6252 10.29 82.8952 10.38 83.2752 10.4C83.3052 10.49 83.3252 10.585 83.3352 10.685C83.3452 10.785 83.3502 10.905 83.3502 11.045C83.1002 11.025 82.8102 11.01 82.4802 11C82.1602 11 81.8552 11 81.5652 11C81.2752 11 80.9702 11 80.6502 11C80.3402 11.01 80.0502 11.025 79.7802 11.045C79.7802 10.905 79.7852 10.785 79.7952 10.685C79.8052 10.575 79.8252 10.48 79.8552 10.4C80.1252 10.38 80.3352 10.335 80.4852 10.265C80.6352 10.185 80.7402 10.055 80.8002 9.875C80.8602 9.685 80.8902 9.425 80.8902 9.095V6.74C80.8902 6.03 80.7602 5.55 80.5002 5.3C80.2502 5.04 79.9202 4.91 79.5102 4.91C79.2602 4.91 79.0052 4.995 78.7452 5.165C78.4852 5.325 78.2702 5.59 78.1002 5.96C77.9302 6.32 77.8452 6.805 77.8452 7.415V9.095C77.8452 9.595 77.9202 9.935 78.0702 10.115C78.2202 10.285 78.4952 10.38 78.8952 10.4C78.9252 10.49 78.9452 10.585 78.9552 10.685C78.9652 10.785 78.9702 10.905 78.9702 11.045C78.8002 11.035 78.6102 11.025 78.4002 11.015C78.1902 11.015 77.9802 11.01 77.7702 11C77.5602 11 77.3652 11 77.1852 11C77.0152 11 76.8202 11 76.6002 11C76.3802 11.01 76.1652 11.015 75.9552 11.015C75.7452 11.025 75.5602 11.035 75.4002 11.045ZM88.6717 14.675C88.6717 14.535 88.6767 14.41 88.6867 14.3C88.6967 14.2 88.7167 14.11 88.7467 14.03C89.0167 14.01 89.2267 13.96 89.3767 13.88C89.5267 13.81 89.6317 13.68 89.6917 13.49C89.7517 13.31 89.7817 13.055 89.7817 12.725V6.125C89.7817 5.885 89.7567 5.69 89.7067 5.54C89.6567 5.39 89.5517 5.275 89.3917 5.195C89.2317 5.115 88.9867 5.07 88.6567 5.06C88.6567 4.95 88.6667 4.85 88.6867 4.76C88.7067 4.67 88.7417 4.585 88.7917 4.505C89.1017 4.485 89.4567 4.425 89.8567 4.325C90.2567 4.225 90.5717 4.115 90.8017 3.995C90.8917 4.025 90.9667 4.09 91.0267 4.19C91.0967 4.28 91.1317 4.435 91.1317 4.655C91.1317 4.885 91.0967 5.105 91.0267 5.315C90.9667 5.515 90.8817 5.785 90.7717 6.125L91.1317 6.41V12.425C91.1317 12.855 91.1767 13.18 91.2667 13.4C91.3567 13.63 91.5017 13.785 91.7017 13.865C91.9017 13.955 92.1567 14.01 92.4667 14.03C92.4967 14.11 92.5167 14.2 92.5267 14.3C92.5367 14.41 92.5417 14.535 92.5417 14.675C92.3917 14.665 92.2117 14.655 92.0017 14.645C91.8017 14.645 91.5867 14.64 91.3567 14.63C91.1267 14.63 90.8917 14.63 90.6517 14.63C90.3017 14.63 89.9317 14.63 89.5417 14.63C89.1617 14.64 88.8717 14.655 88.6717 14.675ZM92.3767 11.135C92.0967 11.135 91.8467 11.11 91.6267 11.06C91.4167 11.01 91.1817 10.945 90.9217 10.865V9.71C91.1217 9.92 91.3367 10.095 91.5667 10.235C91.8067 10.375 92.1017 10.445 92.4517 10.445C92.6617 10.445 92.8867 10.405 93.1267 10.325C93.3767 10.235 93.6167 10.085 93.8467 9.875C94.0767 9.665 94.2617 9.37 94.4017 8.99C94.5517 8.61 94.6267 8.12 94.6267 7.52C94.6267 6.99 94.5517 6.535 94.4017 6.155C94.2617 5.765 94.0617 5.465 93.8017 5.255C93.5517 5.045 93.2667 4.94 92.9467 4.94C92.6567 4.94 92.3717 5.035 92.0917 5.225C91.8117 5.405 91.5817 5.705 91.4017 6.125C91.2217 6.545 91.1317 7.105 91.1317 7.805L90.6967 6.215C90.8267 5.895 90.9367 5.65 91.0267 5.48C91.1267 5.31 91.2017 5.185 91.2517 5.105C91.3417 4.955 91.4817 4.795 91.6717 4.625C91.8717 4.445 92.1117 4.295 92.3917 4.175C92.6717 4.055 92.9767 3.995 93.3067 3.995C93.8967 3.995 94.3967 4.11 94.8067 4.34C95.2267 4.57 95.5467 4.92 95.7667 5.39C95.9967 5.86 96.1117 6.46 96.1117 7.19C96.1117 7.93 95.9567 8.6 95.6467 9.2C95.3367 9.8 94.9017 10.275 94.3417 10.625C93.7817 10.965 93.1267 11.135 92.3767 11.135ZM97.1088 11.045C97.1088 10.945 97.1138 10.84 97.1238 10.73C97.1338 10.61 97.1538 10.5 97.1838 10.4C97.5838 10.4 97.8538 10.31 97.9938 10.13C98.1438 9.94 98.2188 9.595 98.2188 9.095V2.375C98.2188 2.135 98.1938 1.94 98.1438 1.79C98.1038 1.63 98.0038 1.51 97.8438 1.43C97.6838 1.35 97.4338 1.31 97.0938 1.31C97.0938 1.2 97.1038 1.1 97.1238 1.01C97.1438 0.92 97.1788 0.835 97.2288 0.755C97.3788 0.755 97.5888 0.73 97.8588 0.68C98.1388 0.63 98.4088 0.565 98.6688 0.484999C98.9288 0.404999 99.1188 0.324999 99.2388 0.245C99.3288 0.274999 99.4038 0.334999 99.4638 0.424999C99.5338 0.514999 99.5688 0.654999 99.5688 0.844999V9.095C99.5688 9.595 99.6338 9.94 99.7638 10.13C99.9038 10.31 100.134 10.4 100.454 10.4C100.484 10.5 100.504 10.615 100.514 10.745C100.524 10.875 100.529 10.975 100.529 11.045C100.359 11.035 100.179 11.025 99.9888 11.015C99.7988 11.015 99.6038 11.01 99.4038 11C99.2138 11 99.0238 11 98.8338 11C98.6438 11 98.4438 11 98.2338 11C98.0338 11.01 97.8388 11.015 97.6488 11.015C97.4588 11.025 97.2788 11.035 97.1088 11.045ZM106.196 11.135C106.086 11.085 105.996 10.995 105.926 10.865C105.866 10.735 105.836 10.53 105.836 10.25C105.836 10.16 105.841 10.055 105.851 9.935C105.861 9.805 105.881 9.69 105.911 9.59H105.941C105.911 9.75 105.841 9.925 105.731 10.115C105.631 10.295 105.496 10.455 105.326 10.595C105.156 10.745 104.941 10.87 104.681 10.97C104.421 11.06 104.106 11.105 103.736 11.105C103.106 11.105 102.626 10.965 102.296 10.685C101.966 10.395 101.801 10.005 101.801 9.515C101.801 9.125 101.891 8.795 102.071 8.525C102.261 8.245 102.501 8.015 102.791 7.835C103.091 7.645 103.411 7.495 103.751 7.385C104.101 7.275 104.441 7.19 104.771 7.13C105.101 7.07 105.391 7.02 105.641 6.98C105.641 6.57 105.631 6.25 105.611 6.02C105.601 5.79 105.571 5.61 105.521 5.48C105.481 5.34 105.416 5.22 105.326 5.12C105.206 4.97 105.066 4.86 104.906 4.79C104.756 4.71 104.586 4.67 104.396 4.67C104.066 4.67 103.806 4.775 103.616 4.985C103.426 5.185 103.291 5.42 103.211 5.69C103.131 5.96 103.086 6.2 103.076 6.41C102.966 6.41 102.826 6.405 102.656 6.395C102.496 6.375 102.376 6.345 102.296 6.305C102.316 6.055 102.321 5.775 102.311 5.465C102.301 5.155 102.271 4.89 102.221 4.67C102.631 4.46 103.061 4.295 103.511 4.175C103.971 4.055 104.391 3.995 104.771 3.995C105.141 3.995 105.456 4.05 105.716 4.16C105.986 4.26 106.201 4.395 106.361 4.565C106.621 4.815 106.791 5.145 106.871 5.555C106.951 5.955 106.991 6.49 106.991 7.16V8.81C106.991 9.09 107.011 9.315 107.051 9.485C107.101 9.645 107.191 9.765 107.321 9.845C107.451 9.915 107.651 9.96 107.921 9.98C107.921 10.08 107.916 10.195 107.906 10.325C107.896 10.445 107.871 10.56 107.831 10.67C107.581 10.68 107.301 10.73 106.991 10.82C106.691 10.9 106.426 11.005 106.196 11.135ZM104.156 10.28C104.376 10.28 104.601 10.21 104.831 10.07C105.061 9.92 105.251 9.69 105.401 9.38C105.561 9.07 105.641 8.665 105.641 8.165V7.595C105.391 7.625 105.126 7.67 104.846 7.73C104.566 7.78 104.306 7.86 104.066 7.97C103.826 8.08 103.631 8.235 103.481 8.435C103.331 8.625 103.256 8.885 103.256 9.215C103.256 9.585 103.346 9.855 103.526 10.025C103.706 10.195 103.916 10.28 104.156 10.28ZM111.422 11.135C110.832 11.135 110.392 10.985 110.102 10.685C109.822 10.375 109.682 9.88 109.682 9.2V5.135C109.532 5.085 109.377 5.045 109.217 5.015C109.057 4.975 108.852 4.95 108.602 4.94C108.602 4.81 108.612 4.7 108.632 4.61C108.652 4.51 108.687 4.4 108.737 4.28H109.682V2.3C109.882 2.25 110.077 2.17 110.267 2.06C110.467 1.95 110.642 1.83 110.792 1.7C110.892 1.74 110.957 1.8 110.987 1.88C111.017 1.96 111.032 2.16 111.032 2.48V4.28H112.982C112.982 4.38 112.972 4.49 112.952 4.61C112.932 4.72 112.897 4.83 112.847 4.94C112.487 4.95 112.157 4.975 111.857 5.015C111.557 5.045 111.282 5.085 111.032 5.135V8.885C111.032 9.215 111.067 9.49 111.137 9.71C111.207 9.92 111.307 10.075 111.437 10.175C111.567 10.275 111.722 10.325 111.902 10.325C112.112 10.325 112.292 10.295 112.442 10.235C112.602 10.175 112.752 10.085 112.892 9.965C113.022 10.115 113.097 10.28 113.117 10.46C112.957 10.65 112.712 10.81 112.382 10.94C112.062 11.07 111.742 11.135 111.422 11.135ZM117.195 11.135C116.485 11.135 115.895 10.975 115.425 10.655C114.955 10.335 114.6 9.905 114.36 9.365C114.13 8.815 114.015 8.215 114.015 7.565C114.015 6.925 114.14 6.335 114.39 5.795C114.64 5.255 114.995 4.82 115.455 4.49C115.925 4.16 116.48 3.995 117.12 3.995C117.77 3.995 118.29 4.135 118.68 4.415C119.08 4.695 119.375 5.07 119.565 5.54C119.765 6.01 119.885 6.53 119.925 7.1C119.885 7.3 119.81 7.47 119.7 7.61C119.53 7.61 119.275 7.61 118.935 7.61C118.595 7.61 118.21 7.615 117.78 7.625C117.35 7.625 116.91 7.635 116.46 7.655C116.01 7.665 115.585 7.68 115.185 7.7V6.935H118.365C118.365 6.275 118.245 5.74 118.005 5.33C117.765 4.92 117.425 4.715 116.985 4.715C116.745 4.715 116.51 4.79 116.28 4.94C116.05 5.08 115.86 5.335 115.71 5.705C115.56 6.065 115.485 6.58 115.485 7.25C115.485 7.74 115.545 8.22 115.665 8.69C115.795 9.15 116.015 9.535 116.325 9.845C116.645 10.145 117.095 10.295 117.675 10.295C118.005 10.295 118.33 10.22 118.65 10.07C118.97 9.92 119.255 9.705 119.505 9.425C119.585 9.465 119.66 9.535 119.73 9.635C119.81 9.725 119.855 9.81 119.865 9.89C119.525 10.34 119.13 10.66 118.68 10.85C118.24 11.04 117.745 11.135 117.195 11.135ZM124.077 11.045C124.077 10.905 124.082 10.785 124.092 10.685C124.102 10.575 124.122 10.48 124.152 10.4C124.552 10.38 124.822 10.285 124.962 10.115C125.112 9.935 125.187 9.595 125.187 9.095V6.125C125.187 5.885 125.162 5.69 125.112 5.54C125.062 5.39 124.957 5.275 124.797 5.195C124.637 5.115 124.392 5.07 124.062 5.06C124.062 4.95 124.072 4.85 124.092 4.76C124.112 4.67 124.147 4.585 124.197 4.505C124.367 4.495 124.577 4.465 124.827 4.415C125.087 4.355 125.337 4.29 125.577 4.22C125.817 4.14 126.002 4.065 126.132 3.995C126.222 4.025 126.297 4.085 126.357 4.175C126.427 4.265 126.462 4.405 126.462 4.595C126.462 4.755 126.452 4.94 126.432 5.15C126.422 5.36 126.392 5.67 126.342 6.08L126.192 6.095C126.332 5.715 126.432 5.46 126.492 5.33C126.562 5.2 126.612 5.115 126.642 5.075C126.802 4.845 127.067 4.61 127.437 4.37C127.817 4.12 128.267 3.995 128.787 3.995C129.207 3.995 129.592 4.09 129.942 4.28C130.292 4.47 130.547 4.795 130.707 5.255C130.747 5.375 130.767 5.54 130.767 5.75H130.722C130.812 5.5 130.912 5.3 131.022 5.15C131.192 4.92 131.462 4.685 131.832 4.445C132.202 4.195 132.647 4.07 133.167 4.07C133.547 4.07 133.897 4.15 134.217 4.31C134.537 4.46 134.792 4.715 134.982 5.075C135.182 5.425 135.282 5.905 135.282 6.515V9.095C135.282 9.435 135.312 9.7 135.372 9.89C135.442 10.07 135.542 10.195 135.672 10.265C135.812 10.335 135.982 10.38 136.182 10.4C136.212 10.49 136.232 10.585 136.242 10.685C136.252 10.785 136.257 10.905 136.257 11.045C136.037 11.025 135.782 11.01 135.492 11C135.212 11 134.922 11 134.622 11C134.422 11 134.217 11 134.007 11C133.797 11.01 133.592 11.015 133.392 11.015C133.192 11.025 133.007 11.035 132.837 11.045C132.837 10.905 132.842 10.785 132.852 10.685C132.862 10.575 132.882 10.48 132.912 10.4C133.182 10.38 133.392 10.335 133.542 10.265C133.692 10.185 133.797 10.055 133.857 9.875C133.917 9.685 133.947 9.425 133.947 9.095V6.815C133.947 6.105 133.817 5.625 133.557 5.375C133.307 5.115 132.977 4.985 132.567 4.985C132.317 4.985 132.062 5.07 131.802 5.24C131.542 5.4 131.327 5.665 131.157 6.035C130.987 6.395 130.902 6.88 130.902 7.49V9.095C130.902 9.615 130.982 9.96 131.142 10.13C131.302 10.29 131.572 10.38 131.952 10.4C131.982 10.49 132.002 10.585 132.012 10.685C132.022 10.785 132.027 10.905 132.027 11.045C131.777 11.025 131.487 11.01 131.157 11C130.837 11 130.532 11 130.242 11C129.952 11 129.647 11 129.327 11C129.017 11.01 128.727 11.025 128.457 11.045C128.457 10.905 128.462 10.785 128.472 10.685C128.482 10.575 128.502 10.48 128.532 10.4C128.802 10.38 129.012 10.335 129.162 10.265C129.312 10.185 129.417 10.055 129.477 9.875C129.537 9.685 129.567 9.425 129.567 9.095V6.74C129.567 6.03 129.437 5.55 129.177 5.3C128.927 5.04 128.597 4.91 128.187 4.91C127.937 4.91 127.682 4.995 127.422 5.165C127.162 5.325 126.947 5.59 126.777 5.96C126.607 6.32 126.522 6.805 126.522 7.415V9.095C126.522 9.595 126.597 9.935 126.747 10.115C126.897 10.285 127.172 10.38 127.572 10.4C127.602 10.49 127.622 10.585 127.632 10.685C127.642 10.785 127.647 10.905 127.647 11.045C127.477 11.035 127.287 11.025 127.077 11.015C126.867 11.015 126.657 11.01 126.447 11C126.237 11 126.042 11 125.862 11C125.692 11 125.497 11 125.277 11C125.057 11.01 124.842 11.015 124.632 11.015C124.422 11.025 124.237 11.035 124.077 11.045ZM141.938 11.135C141.828 11.085 141.738 10.995 141.668 10.865C141.608 10.735 141.578 10.53 141.578 10.25C141.578 10.16 141.583 10.055 141.593 9.935C141.603 9.805 141.623 9.69 141.653 9.59H141.683C141.653 9.75 141.583 9.925 141.473 10.115C141.373 10.295 141.238 10.455 141.068 10.595C140.898 10.745 140.683 10.87 140.423 10.97C140.163 11.06 139.848 11.105 139.478 11.105C138.848 11.105 138.368 10.965 138.038 10.685C137.708 10.395 137.543 10.005 137.543 9.515C137.543 9.125 137.633 8.795 137.813 8.525C138.003 8.245 138.243 8.015 138.533 7.835C138.833 7.645 139.153 7.495 139.493 7.385C139.843 7.275 140.183 7.19 140.513 7.13C140.843 7.07 141.133 7.02 141.383 6.98C141.383 6.57 141.373 6.25 141.353 6.02C141.343 5.79 141.313 5.61 141.263 5.48C141.223 5.34 141.158 5.22 141.068 5.12C140.948 4.97 140.808 4.86 140.648 4.79C140.498 4.71 140.328 4.67 140.138 4.67C139.808 4.67 139.548 4.775 139.358 4.985C139.168 5.185 139.033 5.42 138.953 5.69C138.873 5.96 138.828 6.2 138.818 6.41C138.708 6.41 138.568 6.405 138.398 6.395C138.238 6.375 138.118 6.345 138.038 6.305C138.058 6.055 138.063 5.775 138.053 5.465C138.043 5.155 138.013 4.89 137.963 4.67C138.373 4.46 138.803 4.295 139.253 4.175C139.713 4.055 140.133 3.995 140.513 3.995C140.883 3.995 141.198 4.05 141.458 4.16C141.728 4.26 141.943 4.395 142.103 4.565C142.363 4.815 142.533 5.145 142.613 5.555C142.693 5.955 142.733 6.49 142.733 7.16V8.81C142.733 9.09 142.753 9.315 142.793 9.485C142.843 9.645 142.933 9.765 143.063 9.845C143.193 9.915 143.393 9.96 143.663 9.98C143.663 10.08 143.658 10.195 143.648 10.325C143.638 10.445 143.613 10.56 143.573 10.67C143.323 10.68 143.043 10.73 142.733 10.82C142.433 10.9 142.168 11.005 141.938 11.135ZM139.898 10.28C140.118 10.28 140.343 10.21 140.573 10.07C140.803 9.92 140.993 9.69 141.143 9.38C141.303 9.07 141.383 8.665 141.383 8.165V7.595C141.133 7.625 140.868 7.67 140.588 7.73C140.308 7.78 140.048 7.86 139.808 7.97C139.568 8.08 139.373 8.235 139.223 8.435C139.073 8.625 138.998 8.885 138.998 9.215C138.998 9.585 139.088 9.855 139.268 10.025C139.448 10.195 139.658 10.28 139.898 10.28ZM148.599 3.995C148.889 3.995 149.139 4.02 149.349 4.07C149.569 4.12 149.804 4.185 150.054 4.265V5.42C149.854 5.21 149.634 5.035 149.394 4.895C149.164 4.755 148.874 4.685 148.524 4.685C148.314 4.685 148.084 4.73 147.834 4.82C147.594 4.9 147.359 5.045 147.129 5.255C146.899 5.465 146.709 5.76 146.559 6.14C146.419 6.52 146.349 7.01 146.349 7.61C146.349 8.25 146.444 8.76 146.634 9.14C146.824 9.51 147.049 9.78 147.309 9.95C147.569 10.11 147.809 10.19 148.029 10.19C148.329 10.19 148.614 10.1 148.884 9.92C149.164 9.73 149.394 9.425 149.574 9.005C149.754 8.585 149.844 8.025 149.844 7.325L150.279 8.915C150.149 9.235 150.034 9.48 149.934 9.65C149.844 9.82 149.774 9.945 149.724 10.025C149.634 10.175 149.489 10.335 149.289 10.505C149.099 10.675 148.864 10.825 148.584 10.955C148.314 11.075 148.009 11.135 147.669 11.135C147.089 11.135 146.589 11.02 146.169 10.79C145.749 10.55 145.424 10.185 145.194 9.695C144.974 9.205 144.864 8.575 144.864 7.805C144.864 7.105 145.019 6.47 145.329 5.9C145.639 5.32 146.074 4.86 146.634 4.52C147.194 4.17 147.849 3.995 148.599 3.995ZM151.194 8.96C151.194 9.19 151.214 9.385 151.254 9.545C151.294 9.695 151.379 9.805 151.509 9.875C151.649 9.945 151.854 9.98 152.124 9.98C152.124 10.08 152.119 10.195 152.109 10.325C152.099 10.445 152.074 10.56 152.034 10.67C151.784 10.68 151.494 10.73 151.164 10.82C150.834 10.9 150.554 11.005 150.324 11.135C150.224 11.085 150.134 11.015 150.054 10.925C149.984 10.825 149.949 10.605 149.949 10.265C149.949 10.065 149.964 9.89 149.994 9.74C150.034 9.58 150.089 9.32 150.159 8.96H151.194ZM151.194 2.375V9.095H149.844V2.375H151.194ZM150.864 0.245C150.954 0.274999 151.029 0.334999 151.089 0.424999C151.159 0.514999 151.194 0.654999 151.194 0.844999V2.93H149.844V2.375C149.844 2.135 149.819 1.94 149.769 1.79C149.729 1.63 149.629 1.51 149.469 1.43C149.309 1.35 149.059 1.31 148.719 1.31C148.719 1.2 148.729 1.1 148.749 1.01C148.769 0.92 148.804 0.835 148.854 0.755C149.004 0.755 149.214 0.73 149.484 0.68C149.754 0.63 150.019 0.565 150.279 0.484999C150.549 0.404999 150.744 0.324999 150.864 0.245ZM156.511 11.135C155.801 11.135 155.211 10.975 154.741 10.655C154.271 10.335 153.916 9.905 153.676 9.365C153.446 8.815 153.331 8.215 153.331 7.565C153.331 6.925 153.456 6.335 153.706 5.795C153.956 5.255 154.311 4.82 154.771 4.49C155.241 4.16 155.796 3.995 156.436 3.995C157.086 3.995 157.606 4.135 157.996 4.415C158.396 4.695 158.691 5.07 158.881 5.54C159.081 6.01 159.201 6.53 159.241 7.1C159.201 7.3 159.126 7.47 159.016 7.61C158.846 7.61 158.591 7.61 158.251 7.61C157.911 7.61 157.526 7.615 157.096 7.625C156.666 7.625 156.226 7.635 155.776 7.655C155.326 7.665 154.901 7.68 154.501 7.7V6.935H157.681C157.681 6.275 157.561 5.74 157.321 5.33C157.081 4.92 156.741 4.715 156.301 4.715C156.061 4.715 155.826 4.79 155.596 4.94C155.366 5.08 155.176 5.335 155.026 5.705C154.876 6.065 154.801 6.58 154.801 7.25C154.801 7.74 154.861 8.22 154.981 8.69C155.111 9.15 155.331 9.535 155.641 9.845C155.961 10.145 156.411 10.295 156.991 10.295C157.321 10.295 157.646 10.22 157.966 10.07C158.286 9.92 158.571 9.705 158.821 9.425C158.901 9.465 158.976 9.535 159.046 9.635C159.126 9.725 159.171 9.81 159.181 9.89C158.841 10.34 158.446 10.66 157.996 10.85C157.556 11.04 157.061 11.135 156.511 11.135ZM163.393 11.045C163.393 10.945 163.398 10.84 163.408 10.73C163.418 10.61 163.438 10.5 163.468 10.4C163.868 10.4 164.138 10.31 164.278 10.13C164.428 9.94 164.503 9.595 164.503 9.095V6.125C164.503 5.885 164.478 5.69 164.428 5.54C164.388 5.38 164.288 5.26 164.128 5.18C163.968 5.1 163.718 5.06 163.378 5.06C163.378 4.95 163.388 4.85 163.408 4.76C163.428 4.67 163.463 4.585 163.513 4.505C163.663 4.505 163.873 4.48 164.143 4.43C164.423 4.38 164.693 4.315 164.953 4.235C165.213 4.155 165.403 4.075 165.523 3.995C165.613 4.025 165.688 4.085 165.748 4.175C165.818 4.265 165.853 4.405 165.853 4.595V9.095C165.853 9.595 165.918 9.94 166.048 10.13C166.188 10.31 166.418 10.4 166.738 10.4C166.768 10.5 166.788 10.615 166.798 10.745C166.808 10.875 166.813 10.975 166.813 11.045C166.643 11.035 166.463 11.025 166.273 11.015C166.083 11.015 165.888 11.01 165.688 11C165.498 11 165.308 11 165.118 11C164.928 11 164.728 11 164.518 11C164.318 11.01 164.123 11.015 163.933 11.015C163.743 11.025 163.563 11.035 163.393 11.045ZM165.058 2.3C164.808 2.3 164.598 2.215 164.428 2.045C164.258 1.875 164.173 1.67 164.173 1.43C164.173 1.16 164.263 0.94 164.443 0.769999C164.623 0.599999 164.828 0.514999 165.058 0.514999C165.328 0.514999 165.543 0.599999 165.703 0.769999C165.873 0.94 165.958 1.16 165.958 1.43C165.958 1.66 165.868 1.865 165.688 2.045C165.518 2.215 165.308 2.3 165.058 2.3ZM169.015 7.79V6.125C169.015 5.885 168.99 5.69 168.94 5.54C168.89 5.39 168.785 5.275 168.625 5.195C168.465 5.115 168.22 5.07 167.89 5.06C167.89 4.95 167.9 4.85 167.92 4.76C167.94 4.67 167.975 4.585 168.025 4.505C168.335 4.485 168.69 4.425 169.09 4.325C169.49 4.225 169.805 4.115 170.035 3.995C170.125 4.025 170.2 4.09 170.26 4.19C170.33 4.28 170.365 4.435 170.365 4.655L169.015 7.79ZM174.805 9.095C174.805 9.615 174.875 9.965 175.015 10.145C175.165 10.315 175.39 10.4 175.69 10.4C175.72 10.49 175.74 10.585 175.75 10.685C175.76 10.785 175.765 10.905 175.765 11.045C175.545 11.025 175.295 11.01 175.015 11C174.735 11 174.44 11 174.13 11C173.93 11 173.72 11 173.5 11C173.28 11.01 173.07 11.015 172.87 11.015C172.68 11.025 172.505 11.035 172.345 11.045C172.345 10.905 172.35 10.785 172.36 10.685C172.37 10.575 172.39 10.48 172.42 10.4C172.78 10.4 173.04 10.31 173.2 10.13C173.37 9.94 173.455 9.595 173.455 9.095V6.815C173.455 6.105 173.325 5.625 173.065 5.375C172.805 5.115 172.47 4.985 172.06 4.985C171.8 4.985 171.54 5.07 171.28 5.24C171.02 5.4 170.8 5.665 170.62 6.035C170.45 6.395 170.365 6.88 170.365 7.49V9.095C170.365 9.595 170.44 9.94 170.59 10.13C170.74 10.31 171.01 10.4 171.4 10.4C171.43 10.49 171.45 10.585 171.46 10.685C171.47 10.785 171.475 10.905 171.475 11.045C171.335 11.035 171.165 11.025 170.965 11.015C170.765 11.015 170.555 11.01 170.335 11C170.115 11 169.9 11 169.69 11C169.49 11 169.28 11 169.06 11C168.84 11.01 168.63 11.015 168.43 11.015C168.23 11.025 168.055 11.035 167.905 11.045C167.905 10.905 167.91 10.785 167.92 10.685C167.93 10.575 167.95 10.48 167.98 10.4C168.37 10.4 168.64 10.31 168.79 10.13C168.94 9.94 169.015 9.595 169.015 9.095V6.125L170.365 4.655C170.365 4.775 170.36 4.91 170.35 5.06C170.34 5.21 170.31 5.37 170.26 5.54C170.29 5.49 170.32 5.435 170.35 5.375C170.38 5.305 170.425 5.23 170.485 5.15C170.655 4.92 170.925 4.685 171.295 4.445C171.675 4.195 172.13 4.07 172.66 4.07C173.04 4.07 173.39 4.15 173.71 4.31C174.04 4.46 174.305 4.715 174.505 5.075C174.705 5.425 174.805 5.905 174.805 6.515V9.095ZM179.224 0.815C179.344 0.825 179.474 0.834999 179.614 0.844999C179.764 0.844999 179.914 0.849999 180.064 0.859999C180.224 0.859999 180.374 0.859999 180.514 0.859999C180.664 0.859999 180.799 0.859999 180.919 0.859999C181.079 0.859999 181.264 0.859999 181.474 0.859999C181.684 0.849999 181.899 0.844999 182.119 0.844999C182.349 0.834999 182.554 0.825 182.734 0.815C182.734 0.895 182.729 0.995 182.719 1.115C182.709 1.225 182.689 1.34 182.659 1.46C182.309 1.48 182.054 1.525 181.894 1.595C181.744 1.665 181.679 1.805 181.699 2.015C181.719 2.225 181.804 2.555 181.954 3.005C182.154 3.615 182.364 4.275 182.584 4.985C182.814 5.695 183.039 6.41 183.259 7.13C183.479 7.84 183.679 8.505 183.859 9.125H183.529L186.349 0.815C186.429 0.784999 186.519 0.764999 186.619 0.755C186.719 0.745 186.849 0.74 187.009 0.74C187.339 1.6 187.679 2.51 188.029 3.47C188.379 4.43 188.724 5.39 189.064 6.35C189.414 7.3 189.739 8.21 190.039 9.08H189.739L191.464 3.59C191.694 2.84 191.754 2.315 191.644 2.015C191.534 1.705 191.234 1.52 190.744 1.46C190.704 1.36 190.674 1.25 190.654 1.13C190.644 1 190.639 0.895 190.639 0.815C190.849 0.825 191.074 0.834999 191.314 0.844999C191.564 0.854999 191.824 0.859999 192.094 0.859999C192.324 0.859999 192.569 0.854999 192.829 0.844999C193.089 0.834999 193.319 0.825 193.519 0.815C193.519 0.915 193.509 1.02 193.489 1.13C193.479 1.24 193.454 1.35 193.414 1.46C193.244 1.5 193.094 1.585 192.964 1.715C192.844 1.845 192.724 2.06 192.604 2.36C192.484 2.66 192.334 3.085 192.154 3.635L189.814 11.045C189.734 11.075 189.639 11.095 189.529 11.105C189.429 11.125 189.324 11.135 189.214 11.135C188.914 10.275 188.594 9.38 188.254 8.45C187.914 7.52 187.569 6.59 187.219 5.66C186.879 4.72 186.544 3.825 186.214 2.975H186.349L183.649 11.045C183.599 11.065 183.534 11.08 183.454 11.09C183.384 11.11 183.309 11.12 183.229 11.12C183.159 11.13 183.084 11.135 183.004 11.135C182.604 9.805 182.194 8.475 181.774 7.145C181.354 5.815 180.924 4.495 180.484 3.185C180.304 2.645 180.159 2.26 180.049 2.03C179.939 1.8 179.829 1.655 179.719 1.595C179.619 1.525 179.479 1.48 179.299 1.46C179.269 1.36 179.249 1.255 179.239 1.145C179.229 1.025 179.224 0.915 179.224 0.815ZM196.472 11.135C195.762 11.135 195.172 10.975 194.702 10.655C194.232 10.335 193.877 9.905 193.637 9.365C193.407 8.815 193.292 8.215 193.292 7.565C193.292 6.925 193.417 6.335 193.667 5.795C193.917 5.255 194.272 4.82 194.732 4.49C195.202 4.16 195.757 3.995 196.397 3.995C197.047 3.995 197.567 4.135 197.957 4.415C198.357 4.695 198.652 5.07 198.842 5.54C199.042 6.01 199.162 6.53 199.202 7.1C199.162 7.3 199.087 7.47 198.977 7.61C198.807 7.61 198.552 7.61 198.212 7.61C197.872 7.61 197.487 7.615 197.057 7.625C196.627 7.625 196.187 7.635 195.737 7.655C195.287 7.665 194.862 7.68 194.462 7.7V6.935H197.642C197.642 6.275 197.522 5.74 197.282 5.33C197.042 4.92 196.702 4.715 196.262 4.715C196.022 4.715 195.787 4.79 195.557 4.94C195.327 5.08 195.137 5.335 194.987 5.705C194.837 6.065 194.762 6.58 194.762 7.25C194.762 7.74 194.822 8.22 194.942 8.69C195.072 9.15 195.292 9.535 195.602 9.845C195.922 10.145 196.372 10.295 196.952 10.295C197.282 10.295 197.607 10.22 197.927 10.07C198.247 9.92 198.532 9.705 198.782 9.425C198.862 9.465 198.937 9.535 199.007 9.635C199.087 9.725 199.132 9.81 199.142 9.89C198.802 10.34 198.407 10.66 197.957 10.85C197.517 11.04 197.022 11.135 196.472 11.135ZM202.211 9.71C202.411 9.92 202.626 10.095 202.856 10.235C203.096 10.375 203.391 10.445 203.741 10.445C203.951 10.445 204.176 10.405 204.416 10.325C204.666 10.235 204.906 10.085 205.136 9.875C205.366 9.665 205.551 9.37 205.691 8.99C205.841 8.61 205.916 8.12 205.916 7.52C205.916 6.88 205.821 6.375 205.631 6.005C205.441 5.625 205.216 5.355 204.956 5.195C204.696 5.025 204.456 4.94 204.236 4.94C203.946 4.94 203.661 5.035 203.381 5.225C203.101 5.405 202.871 5.705 202.691 6.125C202.511 6.545 202.421 7.105 202.421 7.805V10.19L202.211 9.71ZM203.666 11.135C203.216 11.135 202.806 11.09 202.436 11C202.066 10.91 201.741 10.79 201.461 10.64C201.181 10.48 200.941 10.305 200.741 10.115C200.851 9.975 200.931 9.77 200.981 9.5C201.041 9.23 201.071 8.8 201.071 8.21V2.375C201.071 2.135 201.046 1.94 200.996 1.79C200.956 1.63 200.856 1.51 200.696 1.43C200.536 1.35 200.286 1.31 199.946 1.31C199.946 1.2 199.956 1.1 199.976 1.01C199.996 0.92 200.031 0.835 200.081 0.755C200.231 0.755 200.441 0.73 200.711 0.68C200.991 0.63 201.261 0.565 201.521 0.484999C201.781 0.404999 201.971 0.324999 202.091 0.245C202.181 0.274999 202.256 0.334999 202.316 0.424999C202.386 0.514999 202.421 0.654999 202.421 0.844999V4.76C202.421 4.94 202.411 5.095 202.391 5.225C202.371 5.345 202.351 5.46 202.331 5.57L202.271 6.905L201.986 6.215C202.116 5.895 202.226 5.65 202.316 5.48C202.416 5.31 202.491 5.185 202.541 5.105C202.631 4.955 202.771 4.795 202.961 4.625C203.161 4.445 203.401 4.295 203.681 4.175C203.961 4.055 204.266 3.995 204.596 3.995C205.186 3.995 205.686 4.115 206.096 4.355C206.516 4.585 206.836 4.945 207.056 5.435C207.286 5.925 207.401 6.555 207.401 7.325C207.401 8.025 207.246 8.665 206.936 9.245C206.626 9.815 206.191 10.275 205.631 10.625C205.071 10.965 204.416 11.135 203.666 11.135ZM212.62 4.28C212.62 4.38 212.61 4.495 212.59 4.625C212.57 4.745 212.53 4.855 212.47 4.955C212.18 4.955 211.905 4.975 211.645 5.015C211.395 5.045 211.165 5.095 210.955 5.165V4.28H212.62ZM209.74 3.68C209.74 3.09 209.84 2.58 210.04 2.15C210.25 1.72 210.525 1.37 210.865 1.1C211.205 0.82 211.585 0.615 212.005 0.484999C212.425 0.344999 212.845 0.274999 213.265 0.274999C213.605 0.274999 213.925 0.315 214.225 0.395C214.525 0.464999 214.755 0.549999 214.915 0.649999L215.065 2.525H214.51C214.51 2.205 214.44 1.94 214.3 1.73C214.16 1.52 213.96 1.36 213.7 1.25C213.45 1.14 213.15 1.085 212.8 1.085C212.23 1.085 211.8 1.25 211.51 1.58C211.23 1.9 211.09 2.445 211.09 3.215V7.67H209.74V3.68ZM209.965 4.28V5.135C209.715 5.065 209.46 5.02 209.2 5C208.94 4.97 208.72 4.955 208.54 4.955C208.54 4.825 208.555 4.705 208.585 4.595C208.625 4.485 208.68 4.38 208.75 4.28H209.965ZM211.09 8.795C211.09 9.225 211.12 9.555 211.18 9.785C211.24 10.005 211.345 10.16 211.495 10.25C211.645 10.33 211.855 10.38 212.125 10.4C212.155 10.48 212.175 10.575 212.185 10.685C212.195 10.785 212.2 10.905 212.2 11.045C211.97 11.025 211.71 11.01 211.42 11C211.13 11 210.81 11 210.46 11C210.11 11 209.765 11 209.425 11C209.095 11.01 208.83 11.025 208.63 11.045C208.63 10.905 208.635 10.785 208.645 10.685C208.655 10.575 208.675 10.48 208.705 10.4C208.975 10.38 209.185 10.335 209.335 10.265C209.485 10.185 209.59 10.055 209.65 9.875C209.71 9.685 209.74 9.425 209.74 9.095V7.595H211.09V8.795ZM214.51 8.36H215.86V9.095C215.86 9.595 215.925 9.94 216.055 10.13C216.195 10.31 216.425 10.4 216.745 10.4C216.775 10.5 216.795 10.615 216.805 10.745C216.815 10.875 216.82 10.975 216.82 11.045C216.65 11.035 216.47 11.025 216.28 11.015C216.09 11.015 215.895 11.01 215.695 11C215.505 11 215.315 11 215.125 11C214.935 11 214.735 11 214.525 11C214.325 11.01 214.13 11.015 213.94 11.015C213.75 11.025 213.57 11.035 213.4 11.045C213.4 10.945 213.405 10.84 213.415 10.73C213.425 10.61 213.445 10.5 213.475 10.4C213.875 10.4 214.145 10.31 214.285 10.13C214.435 9.94 214.51 9.595 214.51 9.095V8.36ZM214.81 2.78L214.3 0.649999C214.44 0.639999 214.58 0.62 214.72 0.59C214.86 0.56 215 0.515 215.14 0.455C215.28 0.394999 215.41 0.324999 215.53 0.245C215.62 0.274999 215.695 0.334999 215.755 0.424999C215.825 0.514999 215.86 0.654999 215.86 0.844999V2.93L214.81 2.78ZM214.51 2.375H215.86V8.495H214.51V2.375ZM221.335 11.135C220.655 11.135 220.06 10.99 219.55 10.7C219.04 10.4 218.645 9.985 218.365 9.455C218.085 8.915 217.945 8.285 217.945 7.565C217.945 6.885 218.09 6.275 218.38 5.735C218.67 5.195 219.07 4.77 219.58 4.46C220.09 4.15 220.675 3.995 221.335 3.995C222.045 3.995 222.65 4.145 223.15 4.445C223.66 4.745 224.05 5.165 224.32 5.705C224.59 6.235 224.725 6.855 224.725 7.565C224.725 8.245 224.58 8.855 224.29 9.395C224.01 9.935 223.615 10.36 223.105 10.67C222.605 10.98 222.015 11.135 221.335 11.135ZM221.455 10.415C222.055 10.415 222.5 10.17 222.79 9.68C223.08 9.18 223.225 8.535 223.225 7.745C223.225 7.125 223.13 6.59 222.94 6.14C222.76 5.68 222.515 5.33 222.205 5.09C221.895 4.84 221.555 4.715 221.185 4.715C220.605 4.715 220.17 4.95 219.88 5.42C219.6 5.89 219.46 6.5 219.46 7.25C219.46 7.92 219.54 8.495 219.7 8.975C219.87 9.445 220.105 9.805 220.405 10.055C220.705 10.295 221.055 10.415 221.455 10.415ZM228.407 11.135C228.237 10.655 228.067 10.185 227.897 9.725C227.737 9.255 227.567 8.795 227.387 8.345C227.217 7.885 227.042 7.43 226.862 6.98C226.692 6.53 226.517 6.08 226.337 5.63C226.227 5.35 226.112 5.15 225.992 5.03C225.882 4.91 225.717 4.815 225.497 4.745C225.457 4.645 225.432 4.535 225.422 4.415C225.412 4.295 225.407 4.19 225.407 4.1C225.607 4.11 225.817 4.12 226.037 4.13C226.267 4.13 226.547 4.13 226.877 4.13C227.207 4.13 227.502 4.125 227.762 4.115C228.022 4.105 228.277 4.095 228.527 4.085C228.527 4.185 228.522 4.3 228.512 4.43C228.502 4.56 228.482 4.665 228.452 4.745C228.172 4.775 227.972 4.825 227.852 4.895C227.742 4.965 227.687 5.06 227.687 5.18C227.697 5.3 227.737 5.455 227.807 5.645C228.037 6.225 228.277 6.86 228.527 7.55C228.777 8.24 229.002 8.88 229.202 9.47L229.007 9.485L231.077 4.13C231.157 4.11 231.252 4.095 231.362 4.085C231.472 4.075 231.577 4.07 231.677 4.07C232.007 4.83 232.367 5.69 232.757 6.65C233.157 7.61 233.542 8.565 233.912 9.515H233.702L234.647 6.68C234.807 6.19 234.877 5.815 234.857 5.555C234.847 5.285 234.772 5.09 234.632 4.97C234.492 4.85 234.297 4.775 234.047 4.745C234.007 4.635 233.972 4.525 233.942 4.415C233.922 4.295 233.912 4.185 233.912 4.085C234.102 4.095 234.317 4.105 234.557 4.115C234.797 4.125 235.027 4.13 235.247 4.13C235.517 4.13 235.762 4.125 235.982 4.115C236.202 4.105 236.397 4.095 236.567 4.085C236.567 4.215 236.557 4.33 236.537 4.43C236.527 4.53 236.497 4.635 236.447 4.745C236.297 4.785 236.167 4.86 236.057 4.97C235.957 5.07 235.852 5.25 235.742 5.51C235.642 5.77 235.507 6.145 235.337 6.635L233.822 11C233.762 11.03 233.697 11.055 233.627 11.075C233.557 11.095 233.482 11.11 233.402 11.12C233.322 11.13 233.232 11.135 233.132 11.135C232.902 10.535 232.652 9.92 232.382 9.29C232.122 8.65 231.862 8.02 231.602 7.4C231.342 6.78 231.087 6.195 230.837 5.645L231.302 5.39L229.067 11C229.017 11.03 228.962 11.055 228.902 11.075C228.842 11.095 228.772 11.11 228.692 11.12C228.612 11.13 228.517 11.135 228.407 11.135ZM237.191 11.15C236.871 11.15 236.621 11.06 236.441 10.88C236.261 10.7 236.171 10.47 236.171 10.19C236.171 9.91 236.271 9.67 236.471 9.47C236.681 9.27 236.946 9.17 237.266 9.17C237.576 9.17 237.816 9.275 237.986 9.485C238.166 9.685 238.256 9.89 238.256 10.1C238.256 10.46 238.146 10.725 237.926 10.895C237.716 11.065 237.471 11.15 237.191 11.15ZM247.369 0.769999L250.939 8.96C251.109 9.33 251.249 9.615 251.359 9.815C251.469 10.015 251.579 10.155 251.689 10.235C251.809 10.315 251.944 10.37 252.094 10.4C252.134 10.53 252.159 10.64 252.169 10.73C252.179 10.82 252.184 10.925 252.184 11.045C252.084 11.035 251.929 11.025 251.719 11.015C251.509 11.015 251.289 11.01 251.059 11C250.829 11 250.634 11 250.474 11C250.354 11 250.214 11 250.054 11C249.894 11.01 249.729 11.015 249.559 11.015C249.389 11.025 249.234 11.03 249.094 11.03C248.964 11.04 248.859 11.045 248.779 11.045C248.779 10.925 248.784 10.81 248.794 10.7C248.814 10.59 248.844 10.49 248.884 10.4C249.294 10.35 249.534 10.26 249.604 10.13C249.684 9.99 249.624 9.69 249.424 9.23L247.339 4.355C247.209 4.045 247.094 3.77 246.994 3.53C246.894 3.29 246.774 2.985 246.634 2.615H246.709C246.589 2.995 246.479 3.32 246.379 3.59C246.289 3.85 246.199 4.1 246.109 4.34L244.399 8.795C244.179 9.385 244.109 9.795 244.189 10.025C244.279 10.245 244.529 10.37 244.939 10.4C244.979 10.49 245.004 10.59 245.014 10.7C245.034 10.81 245.044 10.925 245.044 11.045C244.934 11.035 244.799 11.025 244.639 11.015C244.479 11.015 244.309 11.01 244.129 11C243.959 11 243.789 11 243.619 11C243.369 11 243.134 11.005 242.914 11.015C242.694 11.025 242.514 11.035 242.374 11.045C242.374 10.945 242.379 10.84 242.389 10.73C242.409 10.61 242.439 10.505 242.479 10.415C242.659 10.375 242.809 10.305 242.929 10.205C243.049 10.105 243.164 9.945 243.274 9.725C243.394 9.495 243.529 9.185 243.679 8.795L246.784 0.83C246.884 0.81 246.974 0.795 247.054 0.784999C247.144 0.774999 247.249 0.769999 247.369 0.769999ZM248.734 7.025L248.869 7.7C248.199 7.7 247.479 7.705 246.709 7.715C245.949 7.725 245.259 7.74 244.639 7.76L244.879 7.025H248.734ZM253.1 11.045C253.1 10.945 253.105 10.84 253.115 10.73C253.125 10.61 253.145 10.5 253.175 10.4C253.575 10.4 253.845 10.31 253.985 10.13C254.135 9.94 254.21 9.595 254.21 9.095V2.375C254.21 2.135 254.185 1.94 254.135 1.79C254.095 1.63 253.995 1.51 253.835 1.43C253.675 1.35 253.425 1.31 253.085 1.31C253.085 1.2 253.095 1.1 253.115 1.01C253.135 0.92 253.17 0.835 253.22 0.755C253.37 0.755 253.58 0.73 253.85 0.68C254.13 0.63 254.4 0.565 254.66 0.484999C254.92 0.404999 255.11 0.324999 255.23 0.245C255.32 0.274999 255.395 0.334999 255.455 0.424999C255.525 0.514999 255.56 0.654999 255.56 0.844999V9.095C255.56 9.595 255.625 9.94 255.755 10.13C255.895 10.31 256.125 10.4 256.445 10.4C256.475 10.5 256.495 10.615 256.505 10.745C256.515 10.875 256.52 10.975 256.52 11.045C256.35 11.035 256.17 11.025 255.98 11.015C255.79 11.015 255.595 11.01 255.395 11C255.205 11 255.015 11 254.825 11C254.635 11 254.435 11 254.225 11C254.025 11.01 253.83 11.015 253.64 11.015C253.45 11.025 253.27 11.035 253.1 11.045ZM257.582 11.045C257.582 10.945 257.587 10.84 257.597 10.73C257.607 10.61 257.627 10.5 257.657 10.4C258.057 10.4 258.327 10.31 258.467 10.13C258.617 9.94 258.692 9.595 258.692 9.095V2.375C258.692 2.135 258.667 1.94 258.617 1.79C258.577 1.63 258.477 1.51 258.317 1.43C258.157 1.35 257.907 1.31 257.567 1.31C257.567 1.2 257.577 1.1 257.597 1.01C257.617 0.92 257.652 0.835 257.702 0.755C257.852 0.755 258.062 0.73 258.332 0.68C258.612 0.63 258.882 0.565 259.142 0.484999C259.402 0.404999 259.592 0.324999 259.712 0.245C259.802 0.274999 259.877 0.334999 259.937 0.424999C260.007 0.514999 260.042 0.654999 260.042 0.844999V9.095C260.042 9.595 260.107 9.94 260.237 10.13C260.377 10.31 260.607 10.4 260.927 10.4C260.957 10.5 260.977 10.615 260.987 10.745C260.997 10.875 261.002 10.975 261.002 11.045C260.832 11.035 260.652 11.025 260.462 11.015C260.272 11.015 260.077 11.01 259.877 11C259.687 11 259.497 11 259.307 11C259.117 11 258.917 11 258.707 11C258.507 11.01 258.312 11.015 258.122 11.015C257.932 11.025 257.752 11.035 257.582 11.045ZM267.543 8.795C267.543 9.225 267.588 9.555 267.678 9.785C267.768 10.005 267.913 10.16 268.113 10.25C268.313 10.33 268.568 10.38 268.878 10.4C268.908 10.48 268.928 10.575 268.938 10.685C268.948 10.785 268.953 10.905 268.953 11.045C268.803 11.035 268.623 11.025 268.413 11.015C268.213 11.015 267.998 11.01 267.768 11C267.538 11 267.303 11 267.063 11C266.713 11 266.343 11 265.953 11C265.573 11.01 265.283 11.025 265.083 11.045C265.083 10.905 265.088 10.785 265.098 10.685C265.108 10.575 265.128 10.48 265.158 10.4C265.428 10.38 265.638 10.335 265.788 10.265C265.938 10.185 266.043 10.055 266.103 9.875C266.163 9.685 266.193 9.425 266.193 9.095V7.595H267.543V8.795ZM267.543 6.605V7.79H266.193V6.125L267.543 4.655C267.543 4.995 267.513 5.305 267.453 5.585C267.393 5.855 267.338 6.125 267.288 6.395L267.543 6.605ZM267.213 6.485C267.323 6.205 267.408 5.975 267.468 5.795C267.528 5.615 267.593 5.465 267.663 5.345C267.883 4.995 268.143 4.705 268.443 4.475C268.743 4.245 269.088 4.13 269.478 4.13C269.858 4.13 270.203 4.25 270.513 4.49C270.493 4.65 270.473 4.835 270.453 5.045C270.433 5.255 270.418 5.465 270.408 5.675C270.408 5.885 270.408 6.08 270.408 6.26C270.318 6.29 270.193 6.32 270.033 6.35C269.883 6.38 269.723 6.395 269.553 6.395C269.533 5.915 269.453 5.6 269.313 5.45C269.183 5.3 269.018 5.225 268.818 5.225C268.648 5.225 268.463 5.325 268.263 5.525C268.063 5.715 267.893 5.97 267.753 6.29C267.613 6.61 267.543 6.965 267.543 7.355L267.213 6.485ZM266.193 7.79V6.125C266.193 5.885 266.168 5.69 266.118 5.54C266.068 5.39 265.963 5.275 265.803 5.195C265.643 5.115 265.398 5.07 265.068 5.06C265.068 4.95 265.078 4.85 265.098 4.76C265.118 4.67 265.153 4.585 265.203 4.505C265.513 4.485 265.868 4.425 266.268 4.325C266.668 4.225 266.983 4.115 267.213 3.995C267.303 4.025 267.378 4.09 267.438 4.19C267.508 4.28 267.543 4.435 267.543 4.655L266.193 7.79ZM271.367 11.045C271.367 10.945 271.372 10.84 271.382 10.73C271.392 10.61 271.412 10.5 271.442 10.4C271.842 10.4 272.112 10.31 272.252 10.13C272.402 9.94 272.477 9.595 272.477 9.095V6.125C272.477 5.885 272.452 5.69 272.402 5.54C272.362 5.38 272.262 5.26 272.102 5.18C271.942 5.1 271.692 5.06 271.352 5.06C271.352 4.95 271.362 4.85 271.382 4.76C271.402 4.67 271.437 4.585 271.487 4.505C271.637 4.505 271.847 4.48 272.117 4.43C272.397 4.38 272.667 4.315 272.927 4.235C273.187 4.155 273.377 4.075 273.497 3.995C273.587 4.025 273.662 4.085 273.722 4.175C273.792 4.265 273.827 4.405 273.827 4.595V9.095C273.827 9.595 273.892 9.94 274.022 10.13C274.162 10.31 274.392 10.4 274.712 10.4C274.742 10.5 274.762 10.615 274.772 10.745C274.782 10.875 274.787 10.975 274.787 11.045C274.617 11.035 274.437 11.025 274.247 11.015C274.057 11.015 273.862 11.01 273.662 11C273.472 11 273.282 11 273.092 11C272.902 11 272.702 11 272.492 11C272.292 11.01 272.097 11.015 271.907 11.015C271.717 11.025 271.537 11.035 271.367 11.045ZM273.032 2.3C272.782 2.3 272.572 2.215 272.402 2.045C272.232 1.875 272.147 1.67 272.147 1.43C272.147 1.16 272.237 0.94 272.417 0.769999C272.597 0.599999 272.802 0.514999 273.032 0.514999C273.302 0.514999 273.517 0.599999 273.677 0.769999C273.847 0.94 273.932 1.16 273.932 1.43C273.932 1.66 273.842 1.865 273.662 2.045C273.492 2.215 273.282 2.3 273.032 2.3ZM278.549 14.735C277.939 14.735 277.439 14.655 277.049 14.495C276.669 14.345 276.389 14.12 276.209 13.82C276.029 13.52 275.939 13.15 275.939 12.71C275.939 12.33 276.039 12 276.239 11.72C276.449 11.44 276.739 11.22 277.109 11.06L277.859 11.12C277.619 11.3 277.454 11.49 277.364 11.69C277.274 11.89 277.229 12.125 277.229 12.395C277.229 12.905 277.354 13.29 277.604 13.55C277.864 13.81 278.299 13.94 278.909 13.94C279.569 13.94 280.084 13.775 280.454 13.445C280.834 13.115 281.024 12.735 281.024 12.305C281.024 12.045 280.959 11.84 280.829 11.69C280.709 11.54 280.469 11.43 280.109 11.36C279.759 11.29 279.239 11.255 278.549 11.255C278.099 11.255 277.729 11.23 277.439 11.18C277.159 11.14 276.934 11.07 276.764 10.97C276.604 10.86 276.489 10.725 276.419 10.565C276.359 10.405 276.329 10.21 276.329 9.98C276.329 9.65 276.424 9.33 276.614 9.02C276.814 8.7 277.069 8.415 277.379 8.165L277.934 8.555C277.734 8.725 277.589 8.885 277.499 9.035C277.419 9.185 277.379 9.315 277.379 9.425C277.379 9.605 277.424 9.74 277.514 9.83C277.614 9.92 277.819 9.98 278.129 10.01C278.439 10.04 278.914 10.055 279.554 10.055C280.224 10.055 280.754 10.11 281.144 10.22C281.544 10.33 281.829 10.505 281.999 10.745C282.179 10.985 282.269 11.31 282.269 11.72C282.269 12.06 282.174 12.405 281.984 12.755C281.804 13.115 281.549 13.44 281.219 13.73C280.889 14.03 280.494 14.27 280.034 14.45C279.584 14.64 279.089 14.735 278.549 14.735ZM278.909 8.915C278.439 8.915 277.994 8.825 277.574 8.645C277.154 8.465 276.814 8.195 276.554 7.835C276.304 7.475 276.179 7.025 276.179 6.485C276.179 6.025 276.279 5.61 276.479 5.24C276.679 4.86 276.979 4.56 277.379 4.34C277.789 4.11 278.289 3.995 278.879 3.995C279.379 3.995 279.799 4.08 280.139 4.25C280.489 4.41 280.774 4.62 280.994 4.88C281.214 5.13 281.374 5.395 281.474 5.675C281.574 5.945 281.624 6.185 281.624 6.395C281.624 6.855 281.519 7.28 281.309 7.67C281.109 8.05 280.804 8.355 280.394 8.585C279.994 8.805 279.499 8.915 278.909 8.915ZM279.089 8.225C279.419 8.225 279.689 8.09 279.899 7.82C280.109 7.54 280.214 7.14 280.214 6.62C280.214 6.09 280.084 5.635 279.824 5.255C279.564 4.865 279.199 4.67 278.729 4.67C278.329 4.67 278.034 4.84 277.844 5.18C277.654 5.51 277.559 5.88 277.559 6.29C277.559 6.91 277.694 7.39 277.964 7.73C278.234 8.06 278.609 8.225 279.089 8.225ZM282.389 5.06C282.229 5.02 282.034 4.98 281.804 4.94C281.584 4.9 281.364 4.865 281.144 4.835C280.934 4.805 280.754 4.785 280.604 4.775L279.554 4.13H282.284C282.324 4.26 282.349 4.41 282.359 4.58C282.379 4.74 282.389 4.9 282.389 5.06ZM290.425 9.095C290.425 9.615 290.495 9.965 290.635 10.145C290.785 10.315 291.01 10.4 291.31 10.4C291.34 10.49 291.36 10.585 291.37 10.685C291.38 10.785 291.385 10.905 291.385 11.045C291.165 11.025 290.915 11.01 290.635 11C290.355 11 290.06 11 289.75 11C289.55 11 289.34 11 289.12 11C288.9 11.01 288.69 11.015 288.49 11.015C288.3 11.025 288.125 11.035 287.965 11.045C287.965 10.905 287.97 10.785 287.98 10.685C287.99 10.575 288.01 10.48 288.04 10.4C288.4 10.4 288.66 10.31 288.82 10.13C288.99 9.94 289.075 9.595 289.075 9.095V6.815C289.075 6.105 288.945 5.625 288.685 5.375C288.425 5.115 288.09 4.985 287.68 4.985C287.42 4.985 287.16 5.07 286.9 5.24C286.64 5.4 286.42 5.665 286.24 6.035C286.07 6.395 285.985 6.88 285.985 7.49V9.095C285.985 9.595 286.06 9.94 286.21 10.13C286.36 10.31 286.63 10.4 287.02 10.4C287.05 10.49 287.07 10.585 287.08 10.685C287.09 10.785 287.095 10.905 287.095 11.045C286.955 11.035 286.785 11.025 286.585 11.015C286.385 11.015 286.175 11.01 285.955 11C285.735 11 285.52 11 285.31 11C285.11 11 284.9 11 284.68 11C284.46 11.01 284.25 11.015 284.05 11.015C283.85 11.025 283.675 11.035 283.525 11.045C283.525 10.905 283.53 10.785 283.54 10.685C283.55 10.575 283.57 10.48 283.6 10.4C283.99 10.4 284.26 10.31 284.41 10.13C284.56 9.94 284.635 9.595 284.635 9.095V6.125L285.985 4.655C285.985 4.775 285.98 4.91 285.97 5.06C285.96 5.21 285.93 5.37 285.88 5.54C285.91 5.49 285.94 5.435 285.97 5.375C286 5.305 286.045 5.23 286.105 5.15C286.275 4.92 286.545 4.685 286.915 4.445C287.295 4.195 287.75 4.07 288.28 4.07C288.66 4.07 289.01 4.15 289.33 4.31C289.66 4.46 289.925 4.715 290.125 5.075C290.325 5.425 290.425 5.905 290.425 6.515V9.095ZM284.635 2.375C284.635 2.135 284.61 1.94 284.56 1.79C284.52 1.63 284.42 1.51 284.26 1.43C284.1 1.35 283.85 1.31 283.51 1.31C283.51 1.2 283.52 1.1 283.54 1.01C283.56 0.92 283.595 0.835 283.645 0.755C283.795 0.755 284.005 0.73 284.275 0.68C284.555 0.63 284.825 0.565 285.085 0.484999C285.345 0.404999 285.535 0.324999 285.655 0.245C285.745 0.274999 285.82 0.334999 285.88 0.424999C285.95 0.514999 285.985 0.654999 285.985 0.844999V2.93H284.635V2.375ZM284.635 2.375H285.985V4.655L284.635 6.35V2.375ZM295.04 11.135C294.45 11.135 294.01 10.985 293.72 10.685C293.44 10.375 293.3 9.88 293.3 9.2V5.135C293.15 5.085 292.995 5.045 292.835 5.015C292.675 4.975 292.47 4.95 292.22 4.94C292.22 4.81 292.23 4.7 292.25 4.61C292.27 4.51 292.305 4.4 292.355 4.28H293.3V2.3C293.5 2.25 293.695 2.17 293.885 2.06C294.085 1.95 294.26 1.83 294.41 1.7C294.51 1.74 294.575 1.8 294.605 1.88C294.635 1.96 294.65 2.16 294.65 2.48V4.28H296.6C296.6 4.38 296.59 4.49 296.57 4.61C296.55 4.72 296.515 4.83 296.465 4.94C296.105 4.95 295.775 4.975 295.475 5.015C295.175 5.045 294.9 5.085 294.65 5.135V8.885C294.65 9.215 294.685 9.49 294.755 9.71C294.825 9.92 294.925 10.075 295.055 10.175C295.185 10.275 295.34 10.325 295.52 10.325C295.73 10.325 295.91 10.295 296.06 10.235C296.22 10.175 296.37 10.085 296.51 9.965C296.64 10.115 296.715 10.28 296.735 10.46C296.575 10.65 296.33 10.81 296 10.94C295.68 11.07 295.36 11.135 295.04 11.135ZM302.504 4.52C302.494 4.76 302.484 5.015 302.474 5.285C302.474 5.555 302.494 5.82 302.534 6.08C302.434 6.14 302.319 6.185 302.189 6.215C302.059 6.245 301.924 6.26 301.784 6.26C301.764 5.98 301.679 5.715 301.529 5.465C301.389 5.215 301.199 5.01 300.959 4.85C300.719 4.69 300.434 4.61 300.104 4.61C299.794 4.61 299.544 4.685 299.354 4.835C299.174 4.985 299.084 5.185 299.084 5.435C299.084 5.605 299.119 5.755 299.189 5.885C299.269 6.015 299.434 6.155 299.684 6.305C299.944 6.445 300.339 6.62 300.869 6.83C301.409 7.03 301.834 7.23 302.144 7.43C302.454 7.63 302.674 7.855 302.804 8.105C302.934 8.355 302.999 8.66 302.999 9.02C302.999 9.44 302.879 9.81 302.639 10.13C302.399 10.45 302.069 10.7 301.649 10.88C301.239 11.05 300.774 11.135 300.254 11.135C299.654 11.135 299.174 11.09 298.814 11C298.464 10.9 298.119 10.76 297.779 10.58C297.799 10.42 297.809 10.225 297.809 9.995C297.819 9.765 297.824 9.535 297.824 9.305C297.824 9.075 297.814 8.88 297.794 8.72C297.874 8.66 297.984 8.62 298.124 8.6C298.274 8.57 298.424 8.555 298.574 8.555C298.654 9.185 298.849 9.655 299.159 9.965C299.469 10.275 299.884 10.43 300.404 10.43C300.814 10.43 301.129 10.34 301.349 10.16C301.579 9.98 301.694 9.75 301.694 9.47C301.694 9.29 301.649 9.135 301.559 9.005C301.479 8.875 301.324 8.745 301.094 8.615C300.864 8.485 300.524 8.33 300.074 8.15C299.534 7.93 299.099 7.725 298.769 7.535C298.449 7.345 298.214 7.12 298.064 6.86C297.924 6.6 297.854 6.27 297.854 5.87C297.854 5.55 297.934 5.275 298.094 5.045C298.254 4.805 298.459 4.61 298.709 4.46C298.969 4.3 299.244 4.185 299.534 4.115C299.824 4.035 300.094 3.995 300.344 3.995C300.794 3.995 301.189 4.04 301.529 4.13C301.869 4.22 302.194 4.35 302.504 4.52ZM309.613 8.795C309.613 9.225 309.658 9.555 309.748 9.785C309.838 10.005 309.983 10.16 310.183 10.25C310.383 10.33 310.638 10.38 310.948 10.4C310.978 10.48 310.998 10.575 311.008 10.685C311.018 10.785 311.023 10.905 311.023 11.045C310.873 11.035 310.693 11.025 310.483 11.015C310.283 11.015 310.068 11.01 309.838 11C309.608 11 309.373 11 309.133 11C308.783 11 308.413 11 308.023 11C307.643 11.01 307.353 11.025 307.153 11.045C307.153 10.905 307.158 10.785 307.168 10.685C307.178 10.575 307.198 10.48 307.228 10.4C307.498 10.38 307.708 10.335 307.858 10.265C308.008 10.185 308.113 10.055 308.173 9.875C308.233 9.685 308.263 9.425 308.263 9.095V7.595H309.613V8.795ZM309.613 6.605V7.79H308.263V6.125L309.613 4.655C309.613 4.995 309.583 5.305 309.523 5.585C309.463 5.855 309.408 6.125 309.358 6.395L309.613 6.605ZM309.283 6.485C309.393 6.205 309.478 5.975 309.538 5.795C309.598 5.615 309.663 5.465 309.733 5.345C309.953 4.995 310.213 4.705 310.513 4.475C310.813 4.245 311.158 4.13 311.548 4.13C311.928 4.13 312.273 4.25 312.583 4.49C312.563 4.65 312.543 4.835 312.523 5.045C312.503 5.255 312.488 5.465 312.478 5.675C312.478 5.885 312.478 6.08 312.478 6.26C312.388 6.29 312.263 6.32 312.103 6.35C311.953 6.38 311.793 6.395 311.623 6.395C311.603 5.915 311.523 5.6 311.383 5.45C311.253 5.3 311.088 5.225 310.888 5.225C310.718 5.225 310.533 5.325 310.333 5.525C310.133 5.715 309.963 5.97 309.823 6.29C309.683 6.61 309.613 6.965 309.613 7.355L309.283 6.485ZM308.263 7.79V6.125C308.263 5.885 308.238 5.69 308.188 5.54C308.138 5.39 308.033 5.275 307.873 5.195C307.713 5.115 307.468 5.07 307.138 5.06C307.138 4.95 307.148 4.85 307.168 4.76C307.188 4.67 307.223 4.585 307.273 4.505C307.583 4.485 307.938 4.425 308.338 4.325C308.738 4.225 309.053 4.115 309.283 3.995C309.373 4.025 309.448 4.09 309.508 4.19C309.578 4.28 309.613 4.435 309.613 4.655L308.263 7.79ZM316.662 11.135C315.952 11.135 315.362 10.975 314.892 10.655C314.422 10.335 314.067 9.905 313.827 9.365C313.597 8.815 313.482 8.215 313.482 7.565C313.482 6.925 313.607 6.335 313.857 5.795C314.107 5.255 314.462 4.82 314.922 4.49C315.392 4.16 315.947 3.995 316.587 3.995C317.237 3.995 317.757 4.135 318.147 4.415C318.547 4.695 318.842 5.07 319.032 5.54C319.232 6.01 319.352 6.53 319.392 7.1C319.352 7.3 319.277 7.47 319.167 7.61C318.997 7.61 318.742 7.61 318.402 7.61C318.062 7.61 317.677 7.615 317.247 7.625C316.817 7.625 316.377 7.635 315.927 7.655C315.477 7.665 315.052 7.68 314.652 7.7V6.935H317.832C317.832 6.275 317.712 5.74 317.472 5.33C317.232 4.92 316.892 4.715 316.452 4.715C316.212 4.715 315.977 4.79 315.747 4.94C315.517 5.08 315.327 5.335 315.177 5.705C315.027 6.065 314.952 6.58 314.952 7.25C314.952 7.74 315.012 8.22 315.132 8.69C315.262 9.15 315.482 9.535 315.792 9.845C316.112 10.145 316.562 10.295 317.142 10.295C317.472 10.295 317.797 10.22 318.117 10.07C318.437 9.92 318.722 9.705 318.972 9.425C319.052 9.465 319.127 9.535 319.197 9.635C319.277 9.725 319.322 9.81 319.332 9.89C318.992 10.34 318.597 10.66 318.147 10.85C317.707 11.04 317.212 11.135 316.662 11.135ZM325.312 4.52C325.302 4.76 325.292 5.015 325.282 5.285C325.282 5.555 325.302 5.82 325.342 6.08C325.242 6.14 325.127 6.185 324.997 6.215C324.867 6.245 324.732 6.26 324.592 6.26C324.572 5.98 324.487 5.715 324.337 5.465C324.197 5.215 324.007 5.01 323.767 4.85C323.527 4.69 323.242 4.61 322.912 4.61C322.602 4.61 322.352 4.685 322.162 4.835C321.982 4.985 321.892 5.185 321.892 5.435C321.892 5.605 321.927 5.755 321.997 5.885C322.077 6.015 322.242 6.155 322.492 6.305C322.752 6.445 323.147 6.62 323.677 6.83C324.217 7.03 324.642 7.23 324.952 7.43C325.262 7.63 325.482 7.855 325.612 8.105C325.742 8.355 325.807 8.66 325.807 9.02C325.807 9.44 325.687 9.81 325.447 10.13C325.207 10.45 324.877 10.7 324.457 10.88C324.047 11.05 323.582 11.135 323.062 11.135C322.462 11.135 321.982 11.09 321.622 11C321.272 10.9 320.927 10.76 320.587 10.58C320.607 10.42 320.617 10.225 320.617 9.995C320.627 9.765 320.632 9.535 320.632 9.305C320.632 9.075 320.622 8.88 320.602 8.72C320.682 8.66 320.792 8.62 320.932 8.6C321.082 8.57 321.232 8.555 321.382 8.555C321.462 9.185 321.657 9.655 321.967 9.965C322.277 10.275 322.692 10.43 323.212 10.43C323.622 10.43 323.937 10.34 324.157 10.16C324.387 9.98 324.502 9.75 324.502 9.47C324.502 9.29 324.457 9.135 324.367 9.005C324.287 8.875 324.132 8.745 323.902 8.615C323.672 8.485 323.332 8.33 322.882 8.15C322.342 7.93 321.907 7.725 321.577 7.535C321.257 7.345 321.022 7.12 320.872 6.86C320.732 6.6 320.662 6.27 320.662 5.87C320.662 5.55 320.742 5.275 320.902 5.045C321.062 4.805 321.267 4.61 321.517 4.46C321.777 4.3 322.052 4.185 322.342 4.115C322.632 4.035 322.902 3.995 323.152 3.995C323.602 3.995 323.997 4.04 324.337 4.13C324.677 4.22 325.002 4.35 325.312 4.52ZM330.183 11.135C329.473 11.135 328.883 10.975 328.413 10.655C327.943 10.335 327.588 9.905 327.348 9.365C327.118 8.815 327.003 8.215 327.003 7.565C327.003 6.925 327.128 6.335 327.378 5.795C327.628 5.255 327.983 4.82 328.443 4.49C328.913 4.16 329.468 3.995 330.108 3.995C330.758 3.995 331.278 4.135 331.668 4.415C332.068 4.695 332.363 5.07 332.553 5.54C332.753 6.01 332.873 6.53 332.913 7.1C332.873 7.3 332.798 7.47 332.688 7.61C332.518 7.61 332.263 7.61 331.923 7.61C331.583 7.61 331.198 7.615 330.768 7.625C330.338 7.625 329.898 7.635 329.448 7.655C328.998 7.665 328.573 7.68 328.173 7.7V6.935H331.353C331.353 6.275 331.233 5.74 330.993 5.33C330.753 4.92 330.413 4.715 329.973 4.715C329.733 4.715 329.498 4.79 329.268 4.94C329.038 5.08 328.848 5.335 328.698 5.705C328.548 6.065 328.473 6.58 328.473 7.25C328.473 7.74 328.533 8.22 328.653 8.69C328.783 9.15 329.003 9.535 329.313 9.845C329.633 10.145 330.083 10.295 330.663 10.295C330.993 10.295 331.318 10.22 331.638 10.07C331.958 9.92 332.243 9.705 332.493 9.425C332.573 9.465 332.648 9.535 332.718 9.635C332.798 9.725 332.843 9.81 332.853 9.89C332.513 10.34 332.118 10.66 331.668 10.85C331.228 11.04 330.733 11.135 330.183 11.135ZM336.522 8.795C336.522 9.225 336.567 9.555 336.657 9.785C336.747 10.005 336.892 10.16 337.092 10.25C337.292 10.33 337.547 10.38 337.857 10.4C337.887 10.48 337.907 10.575 337.917 10.685C337.927 10.785 337.932 10.905 337.932 11.045C337.782 11.035 337.602 11.025 337.392 11.015C337.192 11.015 336.977 11.01 336.747 11C336.517 11 336.282 11 336.042 11C335.692 11 335.322 11 334.932 11C334.552 11.01 334.262 11.025 334.062 11.045C334.062 10.905 334.067 10.785 334.077 10.685C334.087 10.575 334.107 10.48 334.137 10.4C334.407 10.38 334.617 10.335 334.767 10.265C334.917 10.185 335.022 10.055 335.082 9.875C335.142 9.685 335.172 9.425 335.172 9.095V7.595H336.522V8.795ZM336.522 6.605V7.79H335.172V6.125L336.522 4.655C336.522 4.995 336.492 5.305 336.432 5.585C336.372 5.855 336.317 6.125 336.267 6.395L336.522 6.605ZM336.192 6.485C336.302 6.205 336.387 5.975 336.447 5.795C336.507 5.615 336.572 5.465 336.642 5.345C336.862 4.995 337.122 4.705 337.422 4.475C337.722 4.245 338.067 4.13 338.457 4.13C338.837 4.13 339.182 4.25 339.492 4.49C339.472 4.65 339.452 4.835 339.432 5.045C339.412 5.255 339.397 5.465 339.387 5.675C339.387 5.885 339.387 6.08 339.387 6.26C339.297 6.29 339.172 6.32 339.012 6.35C338.862 6.38 338.702 6.395 338.532 6.395C338.512 5.915 338.432 5.6 338.292 5.45C338.162 5.3 337.997 5.225 337.797 5.225C337.627 5.225 337.442 5.325 337.242 5.525C337.042 5.715 336.872 5.97 336.732 6.29C336.592 6.61 336.522 6.965 336.522 7.355L336.192 6.485ZM335.172 7.79V6.125C335.172 5.885 335.147 5.69 335.097 5.54C335.047 5.39 334.942 5.275 334.782 5.195C334.622 5.115 334.377 5.07 334.047 5.06C334.047 4.95 334.057 4.85 334.077 4.76C334.097 4.67 334.132 4.585 334.182 4.505C334.492 4.485 334.847 4.425 335.247 4.325C335.647 4.225 335.962 4.115 336.192 3.995C336.282 4.025 336.357 4.09 336.417 4.19C336.487 4.28 336.522 4.435 336.522 4.655L335.172 7.79ZM343.437 11.135C343.357 10.935 343.232 10.645 343.062 10.265C342.902 9.875 342.717 9.445 342.507 8.975C342.307 8.505 342.102 8.045 341.892 7.595C341.692 7.135 341.512 6.735 341.352 6.395C341.202 6.045 341.097 5.805 341.037 5.675C340.907 5.405 340.797 5.21 340.707 5.09C340.617 4.96 340.527 4.87 340.437 4.82C340.357 4.77 340.247 4.74 340.107 4.73C340.067 4.6 340.042 4.495 340.032 4.415C340.022 4.335 340.017 4.225 340.017 4.085C340.227 4.095 340.462 4.105 340.722 4.115C340.992 4.125 341.282 4.13 341.592 4.13C341.802 4.13 342.017 4.13 342.237 4.13C342.467 4.12 342.682 4.115 342.882 4.115C343.092 4.105 343.277 4.095 343.437 4.085C343.437 4.195 343.427 4.305 343.407 4.415C343.387 4.515 343.362 4.61 343.332 4.7C342.832 4.74 342.537 4.82 342.447 4.94C342.357 5.06 342.407 5.325 342.597 5.735C342.667 5.885 342.767 6.115 342.897 6.425C343.027 6.725 343.172 7.07 343.332 7.46C343.492 7.85 343.652 8.245 343.812 8.645C343.972 9.035 344.112 9.39 344.232 9.71H344.067C344.327 9.06 344.562 8.475 344.772 7.955C344.982 7.435 345.177 6.95 345.357 6.5C345.617 5.85 345.692 5.4 345.582 5.15C345.482 4.89 345.242 4.745 344.862 4.715C344.812 4.615 344.772 4.51 344.742 4.4C344.712 4.29 344.697 4.185 344.697 4.085C344.897 4.095 345.122 4.105 345.372 4.115C345.622 4.125 345.862 4.13 346.092 4.13C346.322 4.13 346.567 4.125 346.827 4.115C347.087 4.105 347.307 4.095 347.487 4.085C347.487 4.215 347.477 4.335 347.457 4.445C347.437 4.545 347.402 4.64 347.352 4.73C347.192 4.76 347.052 4.83 346.932 4.94C346.812 5.05 346.692 5.215 346.572 5.435C346.462 5.655 346.322 5.965 346.152 6.365L344.127 11C344.037 11.04 343.927 11.07 343.797 11.09C343.677 11.12 343.557 11.135 343.437 11.135ZM351.35 11.135C350.64 11.135 350.05 10.975 349.58 10.655C349.11 10.335 348.755 9.905 348.515 9.365C348.285 8.815 348.17 8.215 348.17 7.565C348.17 6.925 348.295 6.335 348.545 5.795C348.795 5.255 349.15 4.82 349.61 4.49C350.08 4.16 350.635 3.995 351.275 3.995C351.925 3.995 352.445 4.135 352.835 4.415C353.235 4.695 353.53 5.07 353.72 5.54C353.92 6.01 354.04 6.53 354.08 7.1C354.04 7.3 353.965 7.47 353.855 7.61C353.685 7.61 353.43 7.61 353.09 7.61C352.75 7.61 352.365 7.615 351.935 7.625C351.505 7.625 351.065 7.635 350.615 7.655C350.165 7.665 349.74 7.68 349.34 7.7V6.935H352.52C352.52 6.275 352.4 5.74 352.16 5.33C351.92 4.92 351.58 4.715 351.14 4.715C350.9 4.715 350.665 4.79 350.435 4.94C350.205 5.08 350.015 5.335 349.865 5.705C349.715 6.065 349.64 6.58 349.64 7.25C349.64 7.74 349.7 8.22 349.82 8.69C349.95 9.15 350.17 9.535 350.48 9.845C350.8 10.145 351.25 10.295 351.83 10.295C352.16 10.295 352.485 10.22 352.805 10.07C353.125 9.92 353.41 9.705 353.66 9.425C353.74 9.465 353.815 9.535 353.885 9.635C353.965 9.725 354.01 9.81 354.02 9.89C353.68 10.34 353.285 10.66 352.835 10.85C352.395 11.04 351.9 11.135 351.35 11.135ZM359.009 3.995C359.299 3.995 359.549 4.02 359.759 4.07C359.979 4.12 360.214 4.185 360.464 4.265V5.42C360.264 5.21 360.044 5.035 359.804 4.895C359.574 4.755 359.284 4.685 358.934 4.685C358.724 4.685 358.494 4.73 358.244 4.82C358.004 4.9 357.769 5.045 357.539 5.255C357.309 5.465 357.119 5.76 356.969 6.14C356.829 6.52 356.759 7.01 356.759 7.61C356.759 8.25 356.854 8.76 357.044 9.14C357.234 9.51 357.459 9.78 357.719 9.95C357.979 10.11 358.219 10.19 358.439 10.19C358.739 10.19 359.024 10.1 359.294 9.92C359.574 9.73 359.804 9.425 359.984 9.005C360.164 8.585 360.254 8.025 360.254 7.325L360.689 8.915C360.559 9.235 360.444 9.48 360.344 9.65C360.254 9.82 360.184 9.945 360.134 10.025C360.044 10.175 359.899 10.335 359.699 10.505C359.509 10.675 359.274 10.825 358.994 10.955C358.724 11.075 358.419 11.135 358.079 11.135C357.499 11.135 356.999 11.02 356.579 10.79C356.159 10.55 355.834 10.185 355.604 9.695C355.384 9.205 355.274 8.575 355.274 7.805C355.274 7.105 355.429 6.47 355.739 5.9C356.049 5.32 356.484 4.86 357.044 4.52C357.604 4.17 358.259 3.995 359.009 3.995ZM361.604 8.96C361.604 9.19 361.624 9.385 361.664 9.545C361.704 9.695 361.789 9.805 361.919 9.875C362.059 9.945 362.264 9.98 362.534 9.98C362.534 10.08 362.529 10.195 362.519 10.325C362.509 10.445 362.484 10.56 362.444 10.67C362.194 10.68 361.904 10.73 361.574 10.82C361.244 10.9 360.964 11.005 360.734 11.135C360.634 11.085 360.544 11.015 360.464 10.925C360.394 10.825 360.359 10.605 360.359 10.265C360.359 10.065 360.374 9.89 360.404 9.74C360.444 9.58 360.499 9.32 360.569 8.96H361.604ZM361.604 2.375V9.095H360.254V2.375H361.604ZM361.274 0.245C361.364 0.274999 361.439 0.334999 361.499 0.424999C361.569 0.514999 361.604 0.654999 361.604 0.844999V2.93H360.254V2.375C360.254 2.135 360.229 1.94 360.179 1.79C360.139 1.63 360.039 1.51 359.879 1.43C359.719 1.35 359.469 1.31 359.129 1.31C359.129 1.2 359.139 1.1 359.159 1.01C359.179 0.92 359.214 0.835 359.264 0.755C359.414 0.755 359.624 0.73 359.894 0.68C360.164 0.63 360.429 0.565 360.689 0.484999C360.959 0.404999 361.154 0.324999 361.274 0.245ZM364.881 11.15C364.561 11.15 364.311 11.06 364.131 10.88C363.951 10.7 363.861 10.47 363.861 10.19C363.861 9.91 363.961 9.67 364.161 9.47C364.371 9.27 364.636 9.17 364.956 9.17C365.266 9.17 365.506 9.275 365.676 9.485C365.856 9.685 365.946 9.89 365.946 10.1C365.946 10.46 365.836 10.725 365.616 10.895C365.406 11.065 365.161 11.15 364.881 11.15Z" fill="white" fill-opacity="0.4"/>
</svg>
