<svg width="124" height="18" viewBox="0 0 124 18" fill="none" xmlns="http://www.w3.org/2000/svg">
<path d="M8.56186 17.138C6.96719 17.138 5.51819 16.7853 4.21486 16.08C2.92686 15.3593 1.91486 14.378 1.17886 13.136C0.458189 11.894 0.0978555 10.4987 0.0978555 8.95C0.0978555 7.40133 0.458189 6.006 1.17886 4.764C1.91486 3.522 2.92686 2.54833 4.21486 1.843C5.51819 1.12233 6.96719 0.761999 8.56186 0.761999C10.1565 0.761999 11.5902 1.11467 12.8629 1.82C14.1509 2.52533 15.1629 3.50667 15.8989 4.764C16.6349 6.006 17.0029 7.40133 17.0029 8.95C17.0029 10.4987 16.6349 11.9017 15.8989 13.159C15.1629 14.401 14.1509 15.3747 12.8629 16.08C11.5902 16.7853 10.1565 17.138 8.56186 17.138ZM8.56186 15.62C9.83452 15.62 10.9845 15.3363 12.0119 14.769C13.0392 14.1863 13.8442 13.389 14.4269 12.377C15.0095 11.3497 15.3009 10.2073 15.3009 8.95C15.3009 7.69267 15.0095 6.558 14.4269 5.546C13.8442 4.51867 13.0392 3.72133 12.0119 3.154C10.9845 2.57133 9.83452 2.28 8.56186 2.28C7.28919 2.28 6.13152 2.57133 5.08886 3.154C4.06152 3.72133 3.24886 4.51867 2.65086 5.546C2.06819 6.558 1.77686 7.69267 1.77686 8.95C1.77686 10.2073 2.06819 11.3497 2.65086 12.377C3.24886 13.389 4.06152 14.1863 5.08886 14.769C6.13152 15.3363 7.28919 15.62 8.56186 15.62ZM27.3038 17.138C25.2185 17.138 23.5931 16.54 22.4278 15.344C21.2625 14.148 20.6798 12.4077 20.6798 10.123V0.899999H22.3818V10.054C22.3818 11.9247 22.8035 13.32 23.6468 14.24C24.4901 15.16 25.7091 15.62 27.3038 15.62C28.9138 15.62 30.1405 15.16 30.9838 14.24C31.8271 13.32 32.2488 11.9247 32.2488 10.054V0.899999H33.9048V10.123C33.9048 12.4077 33.3221 14.148 32.1568 15.344C31.0068 16.54 29.3891 17.138 27.3038 17.138ZM50.0276 17L46.3476 11.825C45.9336 11.871 45.5043 11.894 45.0596 11.894H40.7356V17H39.0336V0.899999H45.0596C47.1143 0.899999 48.7243 1.39067 49.8896 2.372C51.055 3.35333 51.6376 4.70267 51.6376 6.42C51.6376 7.67733 51.3156 8.743 50.6716 9.617C50.043 10.4757 49.1383 11.0967 47.9576 11.48L51.8906 17H50.0276ZM45.0136 10.445C46.6083 10.445 47.8273 10.0923 48.6706 9.387C49.514 8.68167 49.9356 7.69267 49.9356 6.42C49.9356 5.11667 49.514 4.12 48.6706 3.43C47.8273 2.72467 46.6083 2.372 45.0136 2.372H40.7356V10.445H45.0136ZM64.8022 2.372H59.1442V0.899999H72.1622V2.372H66.5042V17H64.8022V2.372ZM86.2663 15.528V17H74.8813V0.899999H85.9213V2.372H76.5833V8.099H84.9093V9.548H76.5833V15.528H86.2663ZM100.364 12.699H91.394L89.462 17H87.691L95.051 0.899999H96.73L104.09 17H102.296L100.364 12.699ZM99.743 11.319L95.879 2.671L92.015 11.319H99.743ZM123.474 0.899999V17H121.841V4.12L115.516 14.953H114.711L108.386 4.189V17H106.753V0.899999H108.156L115.148 12.837L122.071 0.899999H123.474Z" fill="#333333"/>
</svg>
