<svg width="221" height="18" viewBox="0 0 221 18" fill="none" xmlns="http://www.w3.org/2000/svg">
<path d="M11.6707 17L7.99069 11.825C7.57669 11.871 7.14735 11.894 6.70269 11.894H2.37869V17H0.676688V0.899999H6.70269C8.75736 0.899999 10.3674 1.39067 11.5327 2.372C12.698 3.35333 13.2807 4.70267 13.2807 6.42C13.2807 7.67733 12.9587 8.743 12.3147 9.617C11.686 10.4757 10.7814 11.0967 9.60069 11.48L13.5337 17H11.6707ZM6.65669 10.445C8.25135 10.445 9.47035 10.0923 10.3137 9.387C11.157 8.68167 11.5787 7.69267 11.5787 6.42C11.5787 5.11667 11.157 4.12 10.3137 3.43C9.47035 2.72467 8.25135 2.372 6.65669 2.372H2.37869V10.445H6.65669ZM28.6828 15.528V17H17.2978V0.899999H28.3378V2.372H18.9998V8.099H27.3258V9.548H18.9998V15.528H28.6828ZM39.5857 17.138C37.991 17.138 36.5497 16.7853 35.2617 16.08C33.989 15.3747 32.9847 14.401 32.2487 13.159C31.528 11.9017 31.1677 10.4987 31.1677 8.95C31.1677 7.40133 31.528 6.006 32.2487 4.764C32.9847 3.50667 33.9967 2.52533 35.2847 1.82C36.5727 1.11467 38.014 0.761999 39.6087 0.761999C40.8047 0.761999 41.9087 0.961333 42.9207 1.36C43.9327 1.75867 44.7913 2.34133 45.4967 3.108L44.4157 4.189C43.1583 2.91633 41.5713 2.28 39.6547 2.28C38.382 2.28 37.2243 2.57133 36.1817 3.154C35.139 3.73667 34.3187 4.534 33.7207 5.546C33.138 6.558 32.8467 7.69267 32.8467 8.95C32.8467 10.2073 33.138 11.342 33.7207 12.354C34.3187 13.366 35.139 14.1633 36.1817 14.746C37.2243 15.3287 38.382 15.62 39.6547 15.62C41.5867 15.62 43.1737 14.976 44.4157 13.688L45.4967 14.769C44.7913 15.5357 43.925 16.126 42.8977 16.54C41.8857 16.9387 40.7817 17.138 39.5857 17.138ZM60.5099 15.528V17H49.1249V0.899999H60.1649V2.372H50.8269V8.099H59.1529V9.548H50.8269V15.528H60.5099ZM77.9657 0.899999V17H76.5627L66.2127 3.936V17H64.5107V0.899999H65.9137L76.2867 13.964V0.899999H77.9657ZM86.3486 2.372H80.6906V0.899999H93.7086V2.372H88.0506V17H86.3486V2.372ZM108.473 0.899999C110.528 0.899999 112.138 1.39067 113.303 2.372C114.469 3.35333 115.051 4.70267 115.051 6.42C115.051 8.13733 114.469 9.48667 113.303 10.468C112.138 11.434 110.528 11.917 108.473 11.917H104.149V17H102.447V0.899999H108.473ZM108.427 10.422C110.022 10.422 111.241 10.077 112.084 9.387C112.928 8.68167 113.349 7.69267 113.349 6.42C113.349 5.11667 112.928 4.12 112.084 3.43C111.241 2.72467 110.022 2.372 108.427 2.372H104.149V10.422H108.427ZM129.725 17L126.045 11.825C125.631 11.871 125.202 11.894 124.757 11.894H120.433V17H118.731V0.899999H124.757C126.812 0.899999 128.422 1.39067 129.587 2.372C130.753 3.35333 131.335 4.70267 131.335 6.42C131.335 7.67733 131.013 8.743 130.369 9.617C129.741 10.4757 128.836 11.0967 127.655 11.48L131.588 17H129.725ZM124.711 10.445C126.306 10.445 127.525 10.0923 128.368 9.387C129.212 8.68167 129.633 7.69267 129.633 6.42C129.633 5.11667 129.212 4.12 128.368 3.43C127.525 2.72467 126.306 2.372 124.711 2.372H120.433V10.445H124.711ZM142.39 17.138C140.796 17.138 139.347 16.7853 138.043 16.08C136.755 15.3593 135.743 14.378 135.007 13.136C134.287 11.894 133.926 10.4987 133.926 8.95C133.926 7.40133 134.287 6.006 135.007 4.764C135.743 3.522 136.755 2.54833 138.043 1.843C139.347 1.12233 140.796 0.761999 142.39 0.761999C143.985 0.761999 145.419 1.11467 146.691 1.82C147.979 2.52533 148.991 3.50667 149.727 4.764C150.463 6.006 150.831 7.40133 150.831 8.95C150.831 10.4987 150.463 11.9017 149.727 13.159C148.991 14.401 147.979 15.3747 146.691 16.08C145.419 16.7853 143.985 17.138 142.39 17.138ZM142.39 15.62C143.663 15.62 144.813 15.3363 145.84 14.769C146.868 14.1863 147.673 13.389 148.255 12.377C148.838 11.3497 149.129 10.2073 149.129 8.95C149.129 7.69267 148.838 6.558 148.255 5.546C147.673 4.51867 146.868 3.72133 145.84 3.154C144.813 2.57133 143.663 2.28 142.39 2.28C141.118 2.28 139.96 2.57133 138.917 3.154C137.89 3.72133 137.077 4.51867 136.479 5.546C135.897 6.558 135.605 7.69267 135.605 8.95C135.605 10.2073 135.897 11.3497 136.479 12.377C137.077 13.389 137.89 14.1863 138.917 14.769C139.96 15.3363 141.118 15.62 142.39 15.62ZM156.035 17.138C155.115 17.138 154.264 16.9387 153.482 16.54C152.7 16.1413 152.063 15.574 151.572 14.838L152.585 13.688C153.474 15.0067 154.632 15.666 156.058 15.666C158.051 15.666 159.048 14.4853 159.048 12.124V2.372H153.16V0.899999H160.727V12.055C160.727 13.7417 160.328 15.0143 159.531 15.873C158.749 16.7163 157.583 17.138 156.035 17.138ZM177.217 15.528V17H165.832V0.899999H176.872V2.372H167.534V8.099H175.86V9.548H167.534V15.528H177.217ZM188.12 17.138C186.525 17.138 185.084 16.7853 183.796 16.08C182.523 15.3747 181.519 14.401 180.783 13.159C180.062 11.9017 179.702 10.4987 179.702 8.95C179.702 7.40133 180.062 6.006 180.783 4.764C181.519 3.50667 182.531 2.52533 183.819 1.82C185.107 1.11467 186.548 0.761999 188.143 0.761999C189.339 0.761999 190.443 0.961333 191.455 1.36C192.467 1.75867 193.326 2.34133 194.031 3.108L192.95 4.189C191.693 2.91633 190.106 2.28 188.189 2.28C186.916 2.28 185.759 2.57133 184.716 3.154C183.673 3.73667 182.853 4.534 182.255 5.546C181.672 6.558 181.381 7.69267 181.381 8.95C181.381 10.2073 181.672 11.342 182.255 12.354C182.853 13.366 183.673 14.1633 184.716 14.746C185.759 15.3287 186.916 15.62 188.189 15.62C190.121 15.62 191.708 14.976 192.95 13.688L194.031 14.769C193.326 15.5357 192.459 16.126 191.432 16.54C190.42 16.9387 189.316 17.138 188.12 17.138ZM200.585 2.372H194.927V0.899999H207.945V2.372H202.287V17H200.585V2.372ZM214.856 17.138C213.66 17.138 212.51 16.9463 211.406 16.563C210.317 16.1797 209.474 15.6737 208.876 15.045L209.543 13.734C210.126 14.3167 210.9 14.792 211.866 15.16C212.832 15.5127 213.829 15.689 214.856 15.689C216.297 15.689 217.378 15.4283 218.099 14.907C218.82 14.3703 219.18 13.6803 219.18 12.837C219.18 12.193 218.981 11.6793 218.582 11.296C218.199 10.9127 217.723 10.6213 217.156 10.422C216.589 10.2073 215.799 9.97733 214.787 9.732C213.576 9.42533 212.61 9.134 211.889 8.858C211.168 8.56667 210.547 8.12967 210.026 7.547C209.52 6.96433 209.267 6.17467 209.267 5.178C209.267 4.36533 209.482 3.62933 209.911 2.97C210.34 2.29533 211 1.75867 211.889 1.36C212.778 0.961333 213.882 0.761999 215.201 0.761999C216.121 0.761999 217.018 0.892333 217.892 1.153C218.781 1.39833 219.548 1.74333 220.192 2.188L219.617 3.545C218.942 3.10033 218.222 2.77067 217.455 2.556C216.688 2.326 215.937 2.211 215.201 2.211C213.79 2.211 212.725 2.487 212.004 3.039C211.299 3.57567 210.946 4.27333 210.946 5.132C210.946 5.776 211.138 6.29733 211.521 6.696C211.92 7.07933 212.41 7.37833 212.993 7.593C213.591 7.79233 214.388 8.01467 215.385 8.26C216.566 8.55133 217.516 8.84267 218.237 9.134C218.973 9.41 219.594 9.83933 220.1 10.422C220.606 10.9893 220.859 11.7637 220.859 12.745C220.859 13.5577 220.637 14.3013 220.192 14.976C219.763 15.6353 219.096 16.1643 218.191 16.563C217.286 16.9463 216.175 17.138 214.856 17.138Z" fill="#333333"/>
</svg>
